%TF.GenerationSoftware,KiCad,Pcbnew,7.0.7*%
%TF.CreationDate,2023-12-09T22:14:26-06:00*%
%TF.ProjectId,Keyboard,4b657962-6f61-4726-942e-6b696361645f,rev?*%
%TF.SameCoordinates,Original*%
%TF.FileFunction,Paste,Bot*%
%TF.FilePolarity,Positive*%
%FSLAX46Y46*%
G04 Gerber Fmt 4.6, Leading zero omitted, Abs format (unit mm)*
G04 Created by KiCad (PCBNEW 7.0.7) date 2023-12-09 22:14:26*
%MOMM*%
%LPD*%
G01*
G04 APERTURE LIST*
G04 Aperture macros list*
%AMRoundRect*
0 Rectangle with rounded corners*
0 $1 Rounding radius*
0 $2 $3 $4 $5 $6 $7 $8 $9 X,Y pos of 4 corners*
0 Add a 4 corners polygon primitive as box body*
4,1,4,$2,$3,$4,$5,$6,$7,$8,$9,$2,$3,0*
0 Add four circle primitives for the rounded corners*
1,1,$1+$1,$2,$3*
1,1,$1+$1,$4,$5*
1,1,$1+$1,$6,$7*
1,1,$1+$1,$8,$9*
0 Add four rect primitives between the rounded corners*
20,1,$1+$1,$2,$3,$4,$5,0*
20,1,$1+$1,$4,$5,$6,$7,0*
20,1,$1+$1,$6,$7,$8,$9,0*
20,1,$1+$1,$8,$9,$2,$3,0*%
G04 Aperture macros list end*
%ADD10R,2.100000X1.400000*%
%ADD11RoundRect,0.135000X0.185000X-0.135000X0.185000X0.135000X-0.185000X0.135000X-0.185000X-0.135000X0*%
%ADD12R,2.550000X2.000000*%
%ADD13RoundRect,0.237500X0.287500X0.237500X-0.287500X0.237500X-0.287500X-0.237500X0.287500X-0.237500X0*%
%ADD14RoundRect,0.135000X-0.185000X0.135000X-0.185000X-0.135000X0.185000X-0.135000X0.185000X0.135000X0*%
%ADD15RoundRect,0.135000X0.135000X0.185000X-0.135000X0.185000X-0.135000X-0.185000X0.135000X-0.185000X0*%
%ADD16RoundRect,0.237500X0.237500X-0.287500X0.237500X0.287500X-0.237500X0.287500X-0.237500X-0.287500X0*%
%ADD17RoundRect,0.218750X0.256250X-0.218750X0.256250X0.218750X-0.256250X0.218750X-0.256250X-0.218750X0*%
%ADD18RoundRect,0.135000X-0.135000X-0.185000X0.135000X-0.185000X0.135000X0.185000X-0.135000X0.185000X0*%
%ADD19RoundRect,0.140000X-0.140000X-0.170000X0.140000X-0.170000X0.140000X0.170000X-0.140000X0.170000X0*%
%ADD20RoundRect,0.140000X0.170000X-0.140000X0.170000X0.140000X-0.170000X0.140000X-0.170000X-0.140000X0*%
%ADD21RoundRect,0.250000X-0.475000X0.250000X-0.475000X-0.250000X0.475000X-0.250000X0.475000X0.250000X0*%
%ADD22RoundRect,0.150000X0.150000X-0.512500X0.150000X0.512500X-0.150000X0.512500X-0.150000X-0.512500X0*%
%ADD23R,0.304800X0.254000*%
%ADD24R,0.304800X0.522199*%
%ADD25R,0.800000X1.200000*%
%ADD26R,1.200000X0.800000*%
%ADD27R,1.300000X0.300000*%
%ADD28R,2.200000X1.800000*%
%ADD29R,1.500000X0.900000*%
%ADD30R,0.900000X1.500000*%
%ADD31R,0.900000X0.900000*%
%ADD32R,0.600000X1.240000*%
%ADD33R,0.300000X1.240000*%
%ADD34RoundRect,0.140000X0.140000X0.170000X-0.140000X0.170000X-0.140000X-0.170000X0.140000X-0.170000X0*%
%ADD35RoundRect,0.250000X-0.850000X-0.350000X0.850000X-0.350000X0.850000X0.350000X-0.850000X0.350000X0*%
%ADD36RoundRect,0.250000X-1.275000X-1.125000X1.275000X-1.125000X1.275000X1.125000X-1.275000X1.125000X0*%
%ADD37RoundRect,0.200000X-0.200000X-0.275000X0.200000X-0.275000X0.200000X0.275000X-0.200000X0.275000X0*%
G04 APERTURE END LIST*
G36*
X353209900Y-85345210D02*
G01*
X353578200Y-85345200D01*
X353578200Y-85954800D01*
X352536800Y-85954800D01*
X352536800Y-85345200D01*
X352905100Y-85345210D01*
X352905100Y-84823012D01*
X353209900Y-84823012D01*
X353209900Y-85345210D01*
G37*
D10*
X358925000Y-175800000D03*
X359025000Y-171300000D03*
X349825000Y-171300000D03*
X349825000Y-175800000D03*
D11*
X357100000Y-168360000D03*
X357100000Y-167340000D03*
D12*
X54610000Y-126238000D03*
X56933000Y-145796000D03*
X49821000Y-165354000D03*
X274697500Y-143320000D03*
X261272500Y-145860000D03*
X167597500Y-104320000D03*
X154172500Y-106860000D03*
X289460000Y-123820000D03*
X276035000Y-126360000D03*
X284597500Y-104320000D03*
X271172500Y-106860000D03*
X273935000Y-162820000D03*
X260510000Y-165360000D03*
X65278000Y-104394000D03*
X245610000Y-104320000D03*
X232185000Y-106860000D03*
X328168000Y-104394000D03*
X269935000Y-123820000D03*
X256510000Y-126360000D03*
X63246000Y-162814000D03*
X313435000Y-162820000D03*
X300010000Y-165360000D03*
X332947500Y-143320000D03*
X319522500Y-145860000D03*
X211447500Y-123820000D03*
X198022500Y-126360000D03*
X332960000Y-162820000D03*
X319535000Y-165360000D03*
X250460000Y-123820000D03*
X237035000Y-126360000D03*
X177710000Y-84820000D03*
X164285000Y-87360000D03*
X275185000Y-84820000D03*
X261760000Y-87360000D03*
X118710000Y-143320000D03*
X105285000Y-145860000D03*
X196685000Y-143320000D03*
X183260000Y-145860000D03*
X113960000Y-123820000D03*
X100535000Y-126360000D03*
X128622500Y-104320000D03*
X115197500Y-106860000D03*
X265097500Y-104320000D03*
X251672500Y-106860000D03*
X99185000Y-143320000D03*
X85760000Y-145860000D03*
X70358000Y-143256000D03*
X290613000Y-145796000D03*
X187097500Y-104320000D03*
X173672500Y-106860000D03*
X216185000Y-143320000D03*
X202760000Y-145860000D03*
X171233000Y-165354000D03*
X206597500Y-104320000D03*
X193172500Y-106860000D03*
X310171000Y-87376000D03*
X67564000Y-123698000D03*
X230947500Y-123820000D03*
X217522500Y-126360000D03*
X138210000Y-143320000D03*
X124785000Y-145860000D03*
X89697500Y-104320000D03*
X76272500Y-106860000D03*
X152935000Y-123820000D03*
X139510000Y-126360000D03*
X216710000Y-84820000D03*
X203285000Y-87360000D03*
X60707500Y-84800000D03*
X47282500Y-87340000D03*
X307631000Y-126492000D03*
X314743000Y-106934000D03*
X94435000Y-123820000D03*
X81010000Y-126360000D03*
X172447500Y-123820000D03*
X159022500Y-126360000D03*
X255197500Y-143320000D03*
X241772500Y-145860000D03*
X293710000Y-162820000D03*
X280285000Y-165360000D03*
X87630000Y-162814000D03*
X304038000Y-143256000D03*
X184658000Y-162814000D03*
X235697500Y-143320000D03*
X222272500Y-145860000D03*
X148110000Y-104320000D03*
X134685000Y-106860000D03*
X236185000Y-84820000D03*
X222760000Y-87360000D03*
X304110000Y-104320000D03*
X290685000Y-106860000D03*
X99697500Y-84820000D03*
X86272500Y-87360000D03*
X352460000Y-162820000D03*
X339035000Y-165360000D03*
X294710000Y-84820000D03*
X281285000Y-87360000D03*
X323596000Y-84836000D03*
X197185000Y-84820000D03*
X183760000Y-87360000D03*
X254210000Y-162820000D03*
X240785000Y-165360000D03*
X133460000Y-123820000D03*
X120035000Y-126360000D03*
X157685000Y-143320000D03*
X144260000Y-145860000D03*
X52070000Y-106934000D03*
X191947500Y-123820000D03*
X178522500Y-126360000D03*
X109197500Y-104320000D03*
X95772500Y-106860000D03*
X138685000Y-84820000D03*
X125260000Y-87360000D03*
X98589000Y-165354000D03*
X177185000Y-143320000D03*
X163760000Y-145860000D03*
X226122500Y-104320000D03*
X212697500Y-106860000D03*
X74205000Y-165354000D03*
X112014000Y-162814000D03*
X255685000Y-84820000D03*
X242260000Y-87360000D03*
X80210000Y-84845000D03*
X66785000Y-87385000D03*
X119197500Y-84820000D03*
X105772500Y-87360000D03*
X158210000Y-84820000D03*
X144785000Y-87360000D03*
X321056000Y-123952000D03*
D13*
X56732500Y-114095000D03*
X54982500Y-114095000D03*
X324177500Y-172640000D03*
X322427500Y-172640000D03*
X54427500Y-171790000D03*
X52677500Y-171790000D03*
X188227500Y-153190000D03*
X186477500Y-153190000D03*
X124652500Y-133140000D03*
X122902500Y-133140000D03*
X51677500Y-94115000D03*
X49927500Y-94115000D03*
D14*
X337932500Y-125140000D03*
X337932500Y-126160000D03*
D13*
X241327500Y-132715000D03*
X239577500Y-132715000D03*
X256412500Y-113290000D03*
X254662500Y-113290000D03*
X294962500Y-113150000D03*
X293212500Y-113150000D03*
X217587500Y-113740000D03*
X215837500Y-113740000D03*
X261027500Y-133065000D03*
X259277500Y-133065000D03*
X245502500Y-172165000D03*
X243752500Y-172165000D03*
X168277500Y-152465000D03*
X166527500Y-152465000D03*
X207877500Y-94240000D03*
X206127500Y-94240000D03*
X236912500Y-113515000D03*
X235162500Y-113515000D03*
D15*
X340092500Y-129150000D03*
X339072500Y-129150000D03*
D13*
X58952500Y-133015000D03*
X57202500Y-133015000D03*
X343352500Y-172515000D03*
X341602500Y-172515000D03*
X149627500Y-94115000D03*
X147877500Y-94115000D03*
D16*
X339432500Y-118925000D03*
X339432500Y-117175000D03*
D17*
X347982500Y-118437500D03*
X347982500Y-116862500D03*
D13*
X315652500Y-94590000D03*
X313902500Y-94590000D03*
D18*
X352797500Y-82400000D03*
X353817500Y-82400000D03*
D13*
X119837500Y-113515000D03*
X118087500Y-113515000D03*
D14*
X358725000Y-131040000D03*
X358725000Y-132060000D03*
D13*
X286402500Y-93940000D03*
X284652500Y-93940000D03*
X314802500Y-133065000D03*
X313052500Y-133065000D03*
X90827500Y-93990000D03*
X89077500Y-93990000D03*
D19*
X358432500Y-123900000D03*
X359392500Y-123900000D03*
D13*
X227152500Y-152715000D03*
X225402500Y-152715000D03*
X227452500Y-93815000D03*
X225702500Y-93815000D03*
X247252500Y-93940000D03*
X245502500Y-93940000D03*
X148702500Y-152215000D03*
X146952500Y-152215000D03*
X266602500Y-93690000D03*
X264852500Y-93690000D03*
D20*
X346182500Y-120380000D03*
X346182500Y-119420000D03*
D15*
X355242500Y-118150000D03*
X354222500Y-118150000D03*
D21*
X358932500Y-126450000D03*
X358932500Y-128350000D03*
D13*
X89927500Y-152340000D03*
X88177500Y-152340000D03*
X61607500Y-153170000D03*
X59857500Y-153170000D03*
X280702500Y-133315000D03*
X278952500Y-133315000D03*
X169202500Y-93865000D03*
X167452500Y-93865000D03*
X304727500Y-172390000D03*
X302977500Y-172390000D03*
D14*
X344682500Y-128140000D03*
X344682500Y-129160000D03*
D13*
X178287500Y-113515000D03*
X176537500Y-113515000D03*
D22*
X352182500Y-119537500D03*
X351232500Y-119537500D03*
X350282500Y-119537500D03*
X350282500Y-117262500D03*
X352182500Y-117262500D03*
D23*
X352507501Y-84949999D03*
D24*
X353057500Y-85084111D03*
D23*
X353607499Y-84949999D03*
X353607499Y-86350001D03*
X353057500Y-86350001D03*
X352507501Y-86350001D03*
D13*
X144502500Y-133615000D03*
X142752500Y-133615000D03*
X246527500Y-152515000D03*
X244777500Y-152515000D03*
D25*
X341582500Y-123850000D03*
X342532500Y-126450000D03*
X340632500Y-126450000D03*
D13*
X103052500Y-171865000D03*
X101302500Y-171865000D03*
D26*
X343732500Y-119800000D03*
X341132500Y-120750000D03*
X341132500Y-118850000D03*
D14*
X343932500Y-116640000D03*
X343932500Y-117660000D03*
D13*
X221877500Y-133065000D03*
X220127500Y-133065000D03*
X129952500Y-93515000D03*
X128202500Y-93515000D03*
D11*
X337600000Y-88110000D03*
X337600000Y-87090000D03*
D25*
X335932500Y-129850000D03*
X336882500Y-132450000D03*
X334982500Y-132450000D03*
D18*
X342422500Y-97400000D03*
X343442500Y-97400000D03*
D13*
X139062500Y-113265000D03*
X137312500Y-113265000D03*
X129527500Y-152215000D03*
X127777500Y-152215000D03*
X266027500Y-152140000D03*
X264277500Y-152140000D03*
D19*
X345202500Y-116900000D03*
X346162500Y-116900000D03*
D13*
X202677500Y-132715000D03*
X200927500Y-132715000D03*
X85877500Y-133140000D03*
X84127500Y-133140000D03*
D15*
X354992500Y-116650000D03*
X353972500Y-116650000D03*
D13*
X158737500Y-113615000D03*
X156987500Y-113615000D03*
X110052500Y-152215000D03*
X108302500Y-152215000D03*
X324177500Y-152515000D03*
X322427500Y-152515000D03*
D15*
X343442500Y-98650000D03*
X342422500Y-98650000D03*
D13*
X110377500Y-93865000D03*
X108627500Y-93865000D03*
D11*
X335682500Y-148185000D03*
X335682500Y-147165000D03*
D13*
X175052500Y-171790000D03*
X173302500Y-171790000D03*
X207827500Y-152840000D03*
X206077500Y-152840000D03*
D20*
X337082500Y-148150000D03*
X337082500Y-147190000D03*
D13*
X275887500Y-113315000D03*
X274137500Y-113315000D03*
D27*
X346432500Y-93400000D03*
X346432500Y-93900000D03*
X346432500Y-94400000D03*
X346432500Y-94900000D03*
X346432500Y-95400000D03*
X346432500Y-95900000D03*
X346432500Y-96400000D03*
X346432500Y-96900000D03*
X346432500Y-97400000D03*
X346432500Y-97900000D03*
X346432500Y-98400000D03*
X346432500Y-98900000D03*
X346432500Y-99400000D03*
X346432500Y-99900000D03*
X346432500Y-100400000D03*
X346432500Y-100900000D03*
D28*
X349682500Y-91500000D03*
X349682500Y-102800000D03*
D29*
X339432500Y-149070000D03*
X339432500Y-147800000D03*
X339432500Y-146530000D03*
X339432500Y-145260000D03*
X339432500Y-143990000D03*
X339432500Y-142720000D03*
X339432500Y-141450000D03*
X339432500Y-140180000D03*
X339432500Y-138910000D03*
X339432500Y-137640000D03*
X339432500Y-136370000D03*
X339432500Y-135100000D03*
X339432500Y-133830000D03*
X339432500Y-132560000D03*
D30*
X341197500Y-131310000D03*
X342467500Y-131310000D03*
X343737500Y-131310000D03*
X345007500Y-131310000D03*
X346277500Y-131310000D03*
X347547500Y-131310000D03*
X348817500Y-131310000D03*
X350087500Y-131310000D03*
X351357500Y-131310000D03*
X352627500Y-131310000D03*
X353897500Y-131310000D03*
X355167500Y-131310000D03*
D29*
X356932500Y-132560000D03*
X356932500Y-133830000D03*
X356932500Y-135100000D03*
X356932500Y-136370000D03*
X356932500Y-137640000D03*
X356932500Y-138910000D03*
X356932500Y-140180000D03*
X356932500Y-141450000D03*
X356932500Y-142720000D03*
X356932500Y-143990000D03*
X356932500Y-145260000D03*
X356932500Y-146530000D03*
X356932500Y-147800000D03*
X356932500Y-149070000D03*
D31*
X346682500Y-141350000D03*
X345282500Y-141350000D03*
X348082500Y-141350000D03*
X345282500Y-139950000D03*
X346682500Y-139950000D03*
X348082500Y-139950000D03*
X345282500Y-142750000D03*
X346682500Y-142750000D03*
X348082500Y-142750000D03*
D13*
X71152500Y-94115000D03*
X69402500Y-94115000D03*
X105352500Y-133140000D03*
X103602500Y-133140000D03*
D32*
X342857500Y-87625000D03*
X343657500Y-87625000D03*
D33*
X344807500Y-87625000D03*
X345807500Y-87625000D03*
X346307500Y-87625000D03*
X347307500Y-87625000D03*
D32*
X348457500Y-87625000D03*
X349257500Y-87625000D03*
X349257500Y-87625000D03*
X348457500Y-87625000D03*
D33*
X347807500Y-87625000D03*
X346807500Y-87625000D03*
X345307500Y-87625000D03*
X344307500Y-87625000D03*
D32*
X343657500Y-87625000D03*
X342857500Y-87625000D03*
D34*
X343412500Y-92400000D03*
X342452500Y-92400000D03*
X343412500Y-101150000D03*
X342452500Y-101150000D03*
X343412500Y-93900000D03*
X342452500Y-93900000D03*
D13*
X81152500Y-113265000D03*
X79402500Y-113265000D03*
X78727500Y-171590000D03*
X76977500Y-171590000D03*
X265127500Y-172165000D03*
X263377500Y-172165000D03*
X320017500Y-113440000D03*
X318267500Y-113440000D03*
X188352500Y-94465000D03*
X186602500Y-94465000D03*
D15*
X333442500Y-134150000D03*
X332422500Y-134150000D03*
D13*
X197862500Y-113740000D03*
X196112500Y-113740000D03*
X100742500Y-113740000D03*
X98992500Y-113740000D03*
D34*
X343412500Y-99900000D03*
X342452500Y-99900000D03*
D13*
X285127500Y-172590000D03*
X283377500Y-172590000D03*
D35*
X347982500Y-126680000D03*
X347982500Y-124400000D03*
D36*
X352607500Y-122875000D03*
X352607500Y-125925000D03*
X355957500Y-122875000D03*
X355957500Y-125925000D03*
D35*
X347982500Y-122120000D03*
D15*
X342692500Y-116650000D03*
X341672500Y-116650000D03*
D13*
X294682500Y-152970000D03*
X292932500Y-152970000D03*
X183977500Y-133315000D03*
X182227500Y-133315000D03*
D37*
X353907500Y-119650000D03*
X355557500Y-119650000D03*
D34*
X345162500Y-123650000D03*
X344202500Y-123650000D03*
D13*
X163652500Y-133065000D03*
X161902500Y-133065000D03*
D17*
X335932500Y-127937500D03*
X335932500Y-126362500D03*
M02*
