M48
; DRILL file {KiCad 7.0.7} date Sun Dec 10 00:54:27 2023
; FORMAT={-:-/ absolute / metric / decimal}
; #@! TF.CreationDate,2023-12-10T00:54:27-06:00
; #@! TF.GenerationSoftware,Kicad,Pcbnew,7.0.7
; #@! TF.FileFunction,Plated,1,2,PTH
FMAT,2
METRIC
; #@! TA.AperFunction,Plated,PTH,ComponentDrill
T1C0.200
; #@! TA.AperFunction,Plated,PTH,ViaDrill
T2C0.400
; #@! TA.AperFunction,Plated,PTH,ComponentDrill
T3C0.600
; #@! TA.AperFunction,Plated,PTH,ComponentDrill
T4C1.190
%
G90
G05
T1
X345.282Y-140.65
X345.282Y-142.05
X345.982Y-139.95
X345.982Y-141.35
X345.982Y-142.75
X346.683Y-140.65
X346.683Y-142.05
X347.382Y-139.95
X347.382Y-141.35
X347.382Y-142.75
X348.082Y-140.65
X348.082Y-142.05
T2
X49.682Y-118.15
X49.883Y-101.15
X53.582Y-98.325
X60.758Y-84.8
X63.246Y-162.814
X65.278Y-104.394
X65.483Y-94.2
X66.682Y-163.15
X67.564Y-123.698
X70.358Y-143.256
X76.026Y-116.88
X79.807Y-95.475
X80.21Y-84.845
X86.358Y-94.4
X87.63Y-162.814
X89.697Y-104.32
X93.932Y-100.9
X94.457Y-123.825
X97.557Y-94.875
X99.185Y-143.32
X99.733Y-84.9
X100.742Y-113.74
X104.407Y-95.075
X109.197Y-104.32
X112.014Y-162.814
X113.96Y-123.82
X117.682Y-134.4
X118.71Y-143.32
X118.932Y-95.375
X119.197Y-84.82
X119.837Y-113.515
X123.232Y-91.25
X124.652Y-133.14
X125.782Y-94.4
X128.623Y-104.32
X131.857Y-119.1
X135.808Y-94.5
X138.21Y-143.25
X138.657Y-84.825
X139.062Y-113.4
X144.502Y-133.615
X148.11Y-104.32
X151.683Y-102.65
X158.183Y-84.725
X158.737Y-113.615
X163.35Y-94.875
X163.433Y-168.15
X163.653Y-133.065
X167.597Y-104.32
X168.933Y-119.15
X171.433Y-102.65
X172.447Y-123.82
X173.857Y-139.175
X177.185Y-143.32
X177.707Y-84.9
X178.287Y-113.515
X184.658Y-162.814
X187.097Y-104.32
X188.227Y-153.19
X195.183Y-130.65
X197.183Y-139.4
X197.862Y-113.74
X198.183Y-97.15
X198.933Y-141.65
X199.808Y-87.1
X205.433Y-137.65
X207.827Y-152.84
X207.933Y-133.15
X209.183Y-97.65
X211.447Y-123.82
X212.683Y-135.65
X213.932Y-125.15
X216.182Y-166.4
X216.185Y-143.175
X216.682Y-84.85
X217.682Y-113.65
X219.982Y-92.375
X220.432Y-120.9
X227.932Y-113.65
X228.182Y-98.15
X230.947Y-123.82
X234.432Y-139.9
X235.585Y-143.129
X236.182Y-135.15
X237.682Y-118.4
X238.182Y-92.65
X241.327Y-132.715
X242.682Y-95.9
X245.61Y-104.32
X246.527Y-152.515
X247.252Y-93.94
X247.65Y-128.524
X250.432Y-100.65
X253.682Y-136.9
X255.025Y-97.55
X255.685Y-84.82
X258.683Y-96.4
X259.433Y-136.9
X259.55Y-94.4
X261.433Y-111.9
X264.433Y-133.4
X264.983Y-104.32
X266.027Y-152.14
X266.602Y-93.69
X269.683Y-99.65
X269.931Y-123.824
X270.275Y-137.65
X271.657Y-114.5
X272.858Y-105.15
X273.183Y-131.65
X275.185Y-84.82
X275.733Y-123.875
X275.887Y-113.315
X276.281Y-155.688
X276.433Y-94.15
X276.433Y-138.15
X277.683Y-103.9
X278.683Y-130.4
X279.183Y-135.15
X280.702Y-133.315
X280.933Y-131.4
X284.597Y-104.32
X289.933Y-141.9
X292.102Y-123.82
X292.933Y-136.9
X294.683Y-152.97
X294.71Y-84.82
X295.384Y-128.584
X297.683Y-169.65
X297.688Y-144.78
X304.038Y-143.256
X304.933Y-134.65
X306.683Y-158.65
X307.933Y-174.65
X308.186Y-113.828
X308.683Y-132.15
X308.933Y-138.15
X309.4Y-103.85
X309.626Y-148.082
X311.658Y-146.558
X312.933Y-147.15
X313.435Y-162.82
X314.803Y-133.065
X314.803Y-137.4
X317.433Y-157.4
X317.683Y-138.775
X317.683Y-140.4
X318.1Y-98.125
X318.507Y-149.025
X320.183Y-141.9
X320.683Y-137.9
X321.056Y-123.952
X322.183Y-131.9
X322.433Y-133.15
X322.683Y-114.4
X322.683Y-117.4
X322.683Y-127.15
X322.935Y-99.587
X323.933Y-137.4
X324.178Y-152.515
X324.31Y-172.772
X324.445Y-138.662
X324.657Y-131.929
X324.933Y-119.4
X324.933Y-140.9
X325.17Y-142.595
X325.183Y-133.15
X325.938Y-145.453
X326.136Y-126.238
X326.808Y-141.4
X327.456Y-114.023
X327.857Y-153.275
X328.168Y-104.394
X328.275Y-92.875
X328.431Y-133.874
X329.183Y-139.9
X329.184Y-107.696
X329.433Y-123.9
X329.438Y-130.302
X329.692Y-132.842
X329.933Y-138.15
X330.382Y-152.025
X330.683Y-140.65
X331.07Y-137.013
X331.42Y-138.662
X331.582Y-145.325
X331.724Y-132.842
X332.433Y-172.4
X332.683Y-137.4
X332.683Y-157.4
X332.947Y-143.32
X333.183Y-132.4
X333.433Y-135.4
X333.433Y-145.9
X333.683Y-129.15
X334.183Y-123.15
X334.433Y-87.4
X334.708Y-140.35
X336.257Y-141.075
X336.433Y-143.266
X336.45Y-163.425
X336.525Y-150.4
X336.907Y-170.575
X337.157Y-145.825
X337.183Y-116.65
X337.433Y-137.64
X337.683Y-102.9
X337.933Y-125.14
X338.4Y-90.3
X338.433Y-130.65
X339.433Y-132.65
X339.433Y-133.83
X339.433Y-135.1
X339.433Y-145.26
X339.433Y-146.53
X339.433Y-149.15
X341.197Y-131.31
X341.582Y-123.85
X341.683Y-133.65
X342.683Y-140.9
X343.183Y-106.15
X343.433Y-133.65
X343.857Y-161.6
X343.933Y-117.66
X344.034Y-136.751
X344.433Y-126.15
X344.683Y-96.4
X345.007Y-131.31
X345.433Y-86.15
X346.183Y-115.4
X346.183Y-120.38
X346.277Y-131.31
X346.683Y-129.65
X346.933Y-107.4
X347.2Y-83.1
X347.295Y-85.662
X347.547Y-131.31
X347.933Y-116.9
X348.457Y-88.95
X348.683Y-99.15
X349.933Y-98.4
X349.933Y-172.9
X350.183Y-137.65
X350.232Y-119.65
X350.683Y-97.4
X350.9Y-84.9
X350.933Y-127.9
X351.232Y-119.65
X351.683Y-113.15
X351.695Y-97.388
X351.975Y-147.625
X352.433Y-162.85
X352.7Y-88.9
X353.058Y-85.65
X353.907Y-119.65
X355.8Y-84.9
X356.683Y-128.4
X356.933Y-138.91
X356.933Y-140.18
X356.933Y-141.45
X356.933Y-142.72
X357.124Y-130.556
X359.683Y-139.15
X360.433Y-153.15
T4
X333.452Y-116.13
X333.452Y-118.67
T3
X341.738Y-82.425G85X341.738Y-83.225
G05
X341.738Y-86.475G85X341.738Y-87.575
G05
X350.377Y-82.425G85X350.377Y-83.225
G05
X350.377Y-86.475G85X350.377Y-87.575
G05
T0
M30
