%TF.GenerationSoftware,KiCad,Pcbnew,7.0.7*%
%TF.CreationDate,2023-12-09T22:14:26-06:00*%
%TF.ProjectId,Keyboard,4b657962-6f61-4726-942e-6b696361645f,rev?*%
%TF.SameCoordinates,Original*%
%TF.FileFunction,Legend,Top*%
%TF.FilePolarity,Positive*%
%FSLAX46Y46*%
G04 Gerber Fmt 4.6, Leading zero omitted, Abs format (unit mm)*
G04 Created by KiCad (PCBNEW 7.0.7) date 2023-12-09 22:14:26*
%MOMM*%
%LPD*%
G01*
G04 APERTURE LIST*
%ADD10C,0.300000*%
%ADD11C,0.120000*%
G04 APERTURE END LIST*
D10*
X133879510Y-165650114D02*
X133379510Y-165650114D01*
X133379510Y-166435828D02*
X133379510Y-164935828D01*
X133379510Y-164935828D02*
X134093796Y-164935828D01*
X134879510Y-164935828D02*
X134879510Y-165292971D01*
X134522367Y-165150114D02*
X134879510Y-165292971D01*
X134879510Y-165292971D02*
X135236653Y-165150114D01*
X134665224Y-165578685D02*
X134879510Y-165292971D01*
X134879510Y-165292971D02*
X135093796Y-165578685D01*
X136022367Y-164935828D02*
X136022367Y-165292971D01*
X135665224Y-165150114D02*
X136022367Y-165292971D01*
X136022367Y-165292971D02*
X136379510Y-165150114D01*
X135808081Y-165578685D02*
X136022367Y-165292971D01*
X136022367Y-165292971D02*
X136236653Y-165578685D01*
X137165224Y-164935828D02*
X137165224Y-165292971D01*
X136808081Y-165150114D02*
X137165224Y-165292971D01*
X137165224Y-165292971D02*
X137522367Y-165150114D01*
X136950938Y-165578685D02*
X137165224Y-165292971D01*
X137165224Y-165292971D02*
X137379510Y-165578685D01*
X139236652Y-166435828D02*
X139236652Y-164935828D01*
X139736653Y-165435828D02*
X140308081Y-165435828D01*
X139950938Y-164935828D02*
X139950938Y-166221542D01*
X139950938Y-166221542D02*
X140022367Y-166364400D01*
X140022367Y-166364400D02*
X140165224Y-166435828D01*
X140165224Y-166435828D02*
X140308081Y-166435828D01*
X141808081Y-164935828D02*
X142165224Y-166435828D01*
X142165224Y-166435828D02*
X142450938Y-165364400D01*
X142450938Y-165364400D02*
X142736653Y-166435828D01*
X142736653Y-166435828D02*
X143093796Y-164935828D01*
X144236653Y-166364400D02*
X144093796Y-166435828D01*
X144093796Y-166435828D02*
X143808082Y-166435828D01*
X143808082Y-166435828D02*
X143665224Y-166364400D01*
X143665224Y-166364400D02*
X143593796Y-166221542D01*
X143593796Y-166221542D02*
X143593796Y-165650114D01*
X143593796Y-165650114D02*
X143665224Y-165507257D01*
X143665224Y-165507257D02*
X143808082Y-165435828D01*
X143808082Y-165435828D02*
X144093796Y-165435828D01*
X144093796Y-165435828D02*
X144236653Y-165507257D01*
X144236653Y-165507257D02*
X144308082Y-165650114D01*
X144308082Y-165650114D02*
X144308082Y-165792971D01*
X144308082Y-165792971D02*
X143593796Y-165935828D01*
X146593795Y-165650114D02*
X146808081Y-165721542D01*
X146808081Y-165721542D02*
X146879510Y-165792971D01*
X146879510Y-165792971D02*
X146950938Y-165935828D01*
X146950938Y-165935828D02*
X146950938Y-166150114D01*
X146950938Y-166150114D02*
X146879510Y-166292971D01*
X146879510Y-166292971D02*
X146808081Y-166364400D01*
X146808081Y-166364400D02*
X146665224Y-166435828D01*
X146665224Y-166435828D02*
X146093795Y-166435828D01*
X146093795Y-166435828D02*
X146093795Y-164935828D01*
X146093795Y-164935828D02*
X146593795Y-164935828D01*
X146593795Y-164935828D02*
X146736653Y-165007257D01*
X146736653Y-165007257D02*
X146808081Y-165078685D01*
X146808081Y-165078685D02*
X146879510Y-165221542D01*
X146879510Y-165221542D02*
X146879510Y-165364400D01*
X146879510Y-165364400D02*
X146808081Y-165507257D01*
X146808081Y-165507257D02*
X146736653Y-165578685D01*
X146736653Y-165578685D02*
X146593795Y-165650114D01*
X146593795Y-165650114D02*
X146093795Y-165650114D01*
X148236653Y-166435828D02*
X148236653Y-165650114D01*
X148236653Y-165650114D02*
X148165224Y-165507257D01*
X148165224Y-165507257D02*
X148022367Y-165435828D01*
X148022367Y-165435828D02*
X147736653Y-165435828D01*
X147736653Y-165435828D02*
X147593795Y-165507257D01*
X148236653Y-166364400D02*
X148093795Y-166435828D01*
X148093795Y-166435828D02*
X147736653Y-166435828D01*
X147736653Y-166435828D02*
X147593795Y-166364400D01*
X147593795Y-166364400D02*
X147522367Y-166221542D01*
X147522367Y-166221542D02*
X147522367Y-166078685D01*
X147522367Y-166078685D02*
X147593795Y-165935828D01*
X147593795Y-165935828D02*
X147736653Y-165864400D01*
X147736653Y-165864400D02*
X148093795Y-165864400D01*
X148093795Y-165864400D02*
X148236653Y-165792971D01*
X149165224Y-166435828D02*
X149022367Y-166364400D01*
X149022367Y-166364400D02*
X148950938Y-166221542D01*
X148950938Y-166221542D02*
X148950938Y-164935828D01*
X149950938Y-166435828D02*
X149808081Y-166364400D01*
X149808081Y-166364400D02*
X149736652Y-166221542D01*
X149736652Y-166221542D02*
X149736652Y-164935828D01*
X133379510Y-168279400D02*
X134522368Y-168279400D01*
X135665225Y-167350828D02*
X135665225Y-168422257D01*
X135665225Y-168422257D02*
X135593796Y-168636542D01*
X135593796Y-168636542D02*
X135450939Y-168779400D01*
X135450939Y-168779400D02*
X135236653Y-168850828D01*
X135236653Y-168850828D02*
X135093796Y-168850828D01*
X136950939Y-168779400D02*
X136808082Y-168850828D01*
X136808082Y-168850828D02*
X136522368Y-168850828D01*
X136522368Y-168850828D02*
X136379510Y-168779400D01*
X136379510Y-168779400D02*
X136308082Y-168636542D01*
X136308082Y-168636542D02*
X136308082Y-168065114D01*
X136308082Y-168065114D02*
X136379510Y-167922257D01*
X136379510Y-167922257D02*
X136522368Y-167850828D01*
X136522368Y-167850828D02*
X136808082Y-167850828D01*
X136808082Y-167850828D02*
X136950939Y-167922257D01*
X136950939Y-167922257D02*
X137022368Y-168065114D01*
X137022368Y-168065114D02*
X137022368Y-168207971D01*
X137022368Y-168207971D02*
X136308082Y-168350828D01*
X137450939Y-167850828D02*
X138022367Y-167850828D01*
X137665224Y-168850828D02*
X137665224Y-167565114D01*
X137665224Y-167565114D02*
X137736653Y-167422257D01*
X137736653Y-167422257D02*
X137879510Y-167350828D01*
X137879510Y-167350828D02*
X138022367Y-167350828D01*
X138308082Y-167850828D02*
X138879510Y-167850828D01*
X138522367Y-168850828D02*
X138522367Y-167565114D01*
X138522367Y-167565114D02*
X138593796Y-167422257D01*
X138593796Y-167422257D02*
X138736653Y-167350828D01*
X138736653Y-167350828D02*
X138879510Y-167350828D01*
X139379510Y-168850828D02*
X139379510Y-167850828D01*
X139379510Y-168136542D02*
X139450939Y-167993685D01*
X139450939Y-167993685D02*
X139522368Y-167922257D01*
X139522368Y-167922257D02*
X139665225Y-167850828D01*
X139665225Y-167850828D02*
X139808082Y-167850828D01*
X140879510Y-168779400D02*
X140736653Y-168850828D01*
X140736653Y-168850828D02*
X140450939Y-168850828D01*
X140450939Y-168850828D02*
X140308081Y-168779400D01*
X140308081Y-168779400D02*
X140236653Y-168636542D01*
X140236653Y-168636542D02*
X140236653Y-168065114D01*
X140236653Y-168065114D02*
X140308081Y-167922257D01*
X140308081Y-167922257D02*
X140450939Y-167850828D01*
X140450939Y-167850828D02*
X140736653Y-167850828D01*
X140736653Y-167850828D02*
X140879510Y-167922257D01*
X140879510Y-167922257D02*
X140950939Y-168065114D01*
X140950939Y-168065114D02*
X140950939Y-168207971D01*
X140950939Y-168207971D02*
X140236653Y-168350828D01*
X141450938Y-167850828D02*
X141808081Y-168850828D01*
X142165224Y-167850828D02*
X141808081Y-168850828D01*
X141808081Y-168850828D02*
X141665224Y-169207971D01*
X141665224Y-169207971D02*
X141593795Y-169279400D01*
X141593795Y-169279400D02*
X141450938Y-169350828D01*
X144736652Y-168707971D02*
X144665224Y-168779400D01*
X144665224Y-168779400D02*
X144450938Y-168850828D01*
X144450938Y-168850828D02*
X144308081Y-168850828D01*
X144308081Y-168850828D02*
X144093795Y-168779400D01*
X144093795Y-168779400D02*
X143950938Y-168636542D01*
X143950938Y-168636542D02*
X143879509Y-168493685D01*
X143879509Y-168493685D02*
X143808081Y-168207971D01*
X143808081Y-168207971D02*
X143808081Y-167993685D01*
X143808081Y-167993685D02*
X143879509Y-167707971D01*
X143879509Y-167707971D02*
X143950938Y-167565114D01*
X143950938Y-167565114D02*
X144093795Y-167422257D01*
X144093795Y-167422257D02*
X144308081Y-167350828D01*
X144308081Y-167350828D02*
X144450938Y-167350828D01*
X144450938Y-167350828D02*
X144665224Y-167422257D01*
X144665224Y-167422257D02*
X144736652Y-167493685D01*
X145379509Y-168850828D02*
X145379509Y-167350828D01*
X146022367Y-168850828D02*
X146022367Y-168065114D01*
X146022367Y-168065114D02*
X145950938Y-167922257D01*
X145950938Y-167922257D02*
X145808081Y-167850828D01*
X145808081Y-167850828D02*
X145593795Y-167850828D01*
X145593795Y-167850828D02*
X145450938Y-167922257D01*
X145450938Y-167922257D02*
X145379509Y-167993685D01*
X147379510Y-168850828D02*
X147379510Y-168065114D01*
X147379510Y-168065114D02*
X147308081Y-167922257D01*
X147308081Y-167922257D02*
X147165224Y-167850828D01*
X147165224Y-167850828D02*
X146879510Y-167850828D01*
X146879510Y-167850828D02*
X146736652Y-167922257D01*
X147379510Y-168779400D02*
X147236652Y-168850828D01*
X147236652Y-168850828D02*
X146879510Y-168850828D01*
X146879510Y-168850828D02*
X146736652Y-168779400D01*
X146736652Y-168779400D02*
X146665224Y-168636542D01*
X146665224Y-168636542D02*
X146665224Y-168493685D01*
X146665224Y-168493685D02*
X146736652Y-168350828D01*
X146736652Y-168350828D02*
X146879510Y-168279400D01*
X146879510Y-168279400D02*
X147236652Y-168279400D01*
X147236652Y-168279400D02*
X147379510Y-168207971D01*
X148093795Y-167850828D02*
X148093795Y-168850828D01*
X148093795Y-167993685D02*
X148165224Y-167922257D01*
X148165224Y-167922257D02*
X148308081Y-167850828D01*
X148308081Y-167850828D02*
X148522367Y-167850828D01*
X148522367Y-167850828D02*
X148665224Y-167922257D01*
X148665224Y-167922257D02*
X148736653Y-168065114D01*
X148736653Y-168065114D02*
X148736653Y-168850828D01*
X150093796Y-167850828D02*
X150093796Y-169065114D01*
X150093796Y-169065114D02*
X150022367Y-169207971D01*
X150022367Y-169207971D02*
X149950938Y-169279400D01*
X149950938Y-169279400D02*
X149808081Y-169350828D01*
X149808081Y-169350828D02*
X149593796Y-169350828D01*
X149593796Y-169350828D02*
X149450938Y-169279400D01*
X150093796Y-168779400D02*
X149950938Y-168850828D01*
X149950938Y-168850828D02*
X149665224Y-168850828D01*
X149665224Y-168850828D02*
X149522367Y-168779400D01*
X149522367Y-168779400D02*
X149450938Y-168707971D01*
X149450938Y-168707971D02*
X149379510Y-168565114D01*
X149379510Y-168565114D02*
X149379510Y-168136542D01*
X149379510Y-168136542D02*
X149450938Y-167993685D01*
X149450938Y-167993685D02*
X149522367Y-167922257D01*
X149522367Y-167922257D02*
X149665224Y-167850828D01*
X149665224Y-167850828D02*
X149950938Y-167850828D01*
X149950938Y-167850828D02*
X150093796Y-167922257D01*
D11*
X54847500Y-121915000D02*
X68817500Y-121915000D01*
X54847500Y-135885000D02*
X54847500Y-121915000D01*
X68817500Y-121915000D02*
X68817500Y-135885000D01*
X68817500Y-135885000D02*
X54847500Y-135885000D01*
X98947500Y-160915000D02*
X112917500Y-160915000D01*
X98947500Y-174885000D02*
X98947500Y-160915000D01*
X112917500Y-160915000D02*
X112917500Y-174885000D01*
X112917500Y-174885000D02*
X98947500Y-174885000D01*
X315187500Y-102415000D02*
X329157500Y-102415000D01*
X315187500Y-116385000D02*
X315187500Y-102415000D01*
X329157500Y-102415000D02*
X329157500Y-116385000D01*
X329157500Y-116385000D02*
X315187500Y-116385000D01*
X50097500Y-160915000D02*
X64067500Y-160915000D01*
X50097500Y-174885000D02*
X50097500Y-160915000D01*
X64067500Y-160915000D02*
X64067500Y-174885000D01*
X64067500Y-174885000D02*
X50097500Y-174885000D01*
X171447500Y-160915000D02*
X185417500Y-160915000D01*
X171447500Y-174885000D02*
X171447500Y-160915000D01*
X185417500Y-160915000D02*
X185417500Y-174885000D01*
X185417500Y-174885000D02*
X171447500Y-174885000D01*
X290947500Y-141415000D02*
X304917500Y-141415000D01*
X290947500Y-155385000D02*
X290947500Y-141415000D01*
X304917500Y-141415000D02*
X304917500Y-155385000D01*
X304917500Y-155385000D02*
X290947500Y-155385000D01*
X74447500Y-160915000D02*
X88417500Y-160915000D01*
X74447500Y-174885000D02*
X74447500Y-160915000D01*
X88417500Y-160915000D02*
X88417500Y-174885000D01*
X88417500Y-174885000D02*
X74447500Y-174885000D01*
X308047500Y-121915000D02*
X322017500Y-121915000D01*
X308047500Y-135885000D02*
X308047500Y-121915000D01*
X322017500Y-121915000D02*
X322017500Y-135885000D01*
X322017500Y-135885000D02*
X308047500Y-135885000D01*
X310447500Y-82915000D02*
X324417500Y-82915000D01*
X310447500Y-96885000D02*
X310447500Y-82915000D01*
X324417500Y-82915000D02*
X324417500Y-96885000D01*
X324417500Y-96885000D02*
X310447500Y-96885000D01*
X57247500Y-141415000D02*
X71217500Y-141415000D01*
X57247500Y-155385000D02*
X57247500Y-141415000D01*
X71217500Y-141415000D02*
X71217500Y-155385000D01*
X71217500Y-155385000D02*
X57247500Y-155385000D01*
X52447500Y-102415000D02*
X66417500Y-102415000D01*
X52447500Y-116385000D02*
X52447500Y-102415000D01*
X66417500Y-102415000D02*
X66417500Y-116385000D01*
X66417500Y-116385000D02*
X52447500Y-116385000D01*
M02*
