%TF.GenerationSoftware,KiCad,Pcbnew,7.0.7*%
%TF.CreationDate,2023-12-09T22:14:26-06:00*%
%TF.ProjectId,Keyboard,4b657962-6f61-4726-942e-6b696361645f,rev?*%
%TF.SameCoordinates,Original*%
%TF.FileFunction,Soldermask,Top*%
%TF.FilePolarity,Negative*%
%FSLAX46Y46*%
G04 Gerber Fmt 4.6, Leading zero omitted, Abs format (unit mm)*
G04 Created by KiCad (PCBNEW 7.0.7) date 2023-12-09 22:14:26*
%MOMM*%
%LPD*%
G01*
G04 APERTURE LIST*
G04 Aperture macros list*
%AMRoundRect*
0 Rectangle with rounded corners*
0 $1 Rounding radius*
0 $2 $3 $4 $5 $6 $7 $8 $9 X,Y pos of 4 corners*
0 Add a 4 corners polygon primitive as box body*
4,1,4,$2,$3,$4,$5,$6,$7,$8,$9,$2,$3,0*
0 Add four circle primitives for the rounded corners*
1,1,$1+$1,$2,$3*
1,1,$1+$1,$4,$5*
1,1,$1+$1,$6,$7*
1,1,$1+$1,$8,$9*
0 Add four rect primitives between the rounded corners*
20,1,$1+$1,$2,$3,$4,$5,0*
20,1,$1+$1,$4,$5,$6,$7,0*
20,1,$1+$1,$6,$7,$8,$9,0*
20,1,$1+$1,$8,$9,$2,$3,0*%
G04 Aperture macros list end*
%ADD10O,4.000000X16.000000*%
%ADD11C,1.700000*%
%ADD12C,3.000000*%
%ADD13C,4.000000*%
%ADD14C,3.050000*%
%ADD15RoundRect,0.250000X-0.845000X0.620000X-0.845000X-0.620000X0.845000X-0.620000X0.845000X0.620000X0*%
%ADD16O,2.190000X1.740000*%
%ADD17C,0.650000*%
%ADD18O,1.000000X1.800000*%
%ADD19O,1.000000X2.100000*%
G04 APERTURE END LIST*
D10*
X358000000Y-97050000D03*
D11*
X56752500Y-128900000D03*
D12*
X58022500Y-126360000D03*
D13*
X61832500Y-128900000D03*
D12*
X64372500Y-123820000D03*
D11*
X66912500Y-128900000D03*
X263602500Y-148400000D03*
D12*
X264872500Y-145860000D03*
D13*
X268682500Y-148400000D03*
D12*
X271222500Y-143320000D03*
D11*
X273762500Y-148400000D03*
X156502500Y-109400000D03*
D12*
X157772500Y-106860000D03*
D13*
X161582500Y-109400000D03*
D12*
X164122500Y-104320000D03*
D11*
X166662500Y-109400000D03*
X278365000Y-128900000D03*
D12*
X279635000Y-126360000D03*
D13*
X283445000Y-128900000D03*
D12*
X285985000Y-123820000D03*
D11*
X288525000Y-128900000D03*
X100852500Y-167900000D03*
D12*
X102122500Y-165360000D03*
D13*
X105932500Y-167900000D03*
D12*
X108472500Y-162820000D03*
D11*
X111012500Y-167900000D03*
X273502500Y-109400000D03*
D12*
X274772500Y-106860000D03*
D13*
X278582500Y-109400000D03*
D12*
X281122500Y-104320000D03*
D11*
X283662500Y-109400000D03*
X262840000Y-167900000D03*
D12*
X264110000Y-165360000D03*
D13*
X267920000Y-167900000D03*
D12*
X270460000Y-162820000D03*
D11*
X273000000Y-167900000D03*
X234515000Y-109400000D03*
D12*
X235785000Y-106860000D03*
D13*
X239595000Y-109400000D03*
D12*
X242135000Y-104320000D03*
D11*
X244675000Y-109400000D03*
X258840000Y-128900000D03*
D12*
X260110000Y-126360000D03*
D13*
X263920000Y-128900000D03*
D12*
X266460000Y-123820000D03*
D11*
X269000000Y-128900000D03*
X317092500Y-109400000D03*
D12*
X318362500Y-106860000D03*
D13*
X322172500Y-109400000D03*
D12*
X324712500Y-104320000D03*
D11*
X327252500Y-109400000D03*
X302340000Y-167900000D03*
D12*
X303610000Y-165360000D03*
D13*
X307420000Y-167900000D03*
D12*
X309960000Y-162820000D03*
D11*
X312500000Y-167900000D03*
X321852500Y-148400000D03*
D12*
X323122500Y-145860000D03*
D13*
X326932500Y-148400000D03*
D12*
X329472500Y-143320000D03*
D11*
X332012500Y-148400000D03*
X200352500Y-128900000D03*
D12*
X201622500Y-126360000D03*
D13*
X205432500Y-128900000D03*
D12*
X207972500Y-123820000D03*
D11*
X210512500Y-128900000D03*
X52002500Y-167900000D03*
D12*
X53272500Y-165360000D03*
D13*
X57082500Y-167900000D03*
D12*
X59622500Y-162820000D03*
D11*
X62162500Y-167900000D03*
X321865000Y-167900000D03*
D12*
X323135000Y-165360000D03*
D13*
X326945000Y-167900000D03*
D12*
X329485000Y-162820000D03*
D11*
X332025000Y-167900000D03*
X239365000Y-128900000D03*
D12*
X240635000Y-126360000D03*
D13*
X244445000Y-128900000D03*
D12*
X246985000Y-123820000D03*
D11*
X249525000Y-128900000D03*
X166615000Y-89900000D03*
D12*
X167885000Y-87360000D03*
D13*
X171695000Y-89900000D03*
D12*
X174235000Y-84820000D03*
D11*
X176775000Y-89900000D03*
X264090000Y-89900000D03*
D12*
X265360000Y-87360000D03*
D13*
X269170000Y-89900000D03*
D12*
X271710000Y-84820000D03*
D11*
X274250000Y-89900000D03*
X107615000Y-148400000D03*
D12*
X108885000Y-145860000D03*
D13*
X112695000Y-148400000D03*
D12*
X115235000Y-143320000D03*
D11*
X117775000Y-148400000D03*
X185590000Y-148400000D03*
D12*
X186860000Y-145860000D03*
D13*
X190670000Y-148400000D03*
D12*
X193210000Y-143320000D03*
D11*
X195750000Y-148400000D03*
X102865000Y-128900000D03*
D12*
X104135000Y-126360000D03*
D13*
X107945000Y-128900000D03*
D12*
X110485000Y-123820000D03*
D11*
X113025000Y-128900000D03*
D14*
X128432500Y-160900000D03*
D13*
X128432500Y-176140000D03*
D11*
X173352500Y-167900000D03*
D12*
X174622500Y-165360000D03*
D13*
X178432500Y-167900000D03*
D12*
X180972500Y-162820000D03*
D11*
X183512500Y-167900000D03*
D14*
X228432500Y-160900000D03*
D13*
X228432500Y-176140000D03*
D11*
X117527500Y-109400000D03*
D12*
X118797500Y-106860000D03*
D13*
X122607500Y-109400000D03*
D12*
X125147500Y-104320000D03*
D11*
X127687500Y-109400000D03*
D14*
X286032500Y-141400000D03*
D13*
X286032500Y-156640000D03*
D11*
X292852500Y-148400000D03*
D12*
X294122500Y-145860000D03*
D13*
X297932500Y-148400000D03*
D12*
X300472500Y-143320000D03*
D11*
X303012500Y-148400000D03*
D14*
X309832500Y-141400000D03*
D13*
X309832500Y-156640000D03*
D11*
X254002500Y-109400000D03*
D12*
X255272500Y-106860000D03*
D13*
X259082500Y-109400000D03*
D12*
X261622500Y-104320000D03*
D11*
X264162500Y-109400000D03*
X88090000Y-148400000D03*
D12*
X89360000Y-145860000D03*
D13*
X93170000Y-148400000D03*
D12*
X95710000Y-143320000D03*
D11*
X98250000Y-148400000D03*
X176002500Y-109400000D03*
D12*
X177272500Y-106860000D03*
D13*
X181082500Y-109400000D03*
D12*
X183622500Y-104320000D03*
D11*
X186162500Y-109400000D03*
X205090000Y-148400000D03*
D12*
X206360000Y-145860000D03*
D13*
X210170000Y-148400000D03*
D12*
X212710000Y-143320000D03*
D11*
X215250000Y-148400000D03*
X195502500Y-109400000D03*
D12*
X196772500Y-106860000D03*
D13*
X200582500Y-109400000D03*
D12*
X203122500Y-104320000D03*
D11*
X205662500Y-109400000D03*
X219852500Y-128900000D03*
D12*
X221122500Y-126360000D03*
D13*
X224932500Y-128900000D03*
D12*
X227472500Y-123820000D03*
D11*
X230012500Y-128900000D03*
X127115000Y-148400000D03*
D12*
X128385000Y-145860000D03*
D13*
X132195000Y-148400000D03*
D12*
X134735000Y-143320000D03*
D11*
X137275000Y-148400000D03*
X78602500Y-109400000D03*
D12*
X79872500Y-106860000D03*
D13*
X83682500Y-109400000D03*
D12*
X86222500Y-104320000D03*
D11*
X88762500Y-109400000D03*
X141840000Y-128900000D03*
D12*
X143110000Y-126360000D03*
D13*
X146920000Y-128900000D03*
D12*
X149460000Y-123820000D03*
D11*
X152000000Y-128900000D03*
X76352500Y-167900000D03*
D12*
X77622500Y-165360000D03*
D13*
X81432500Y-167900000D03*
D12*
X83972500Y-162820000D03*
D11*
X86512500Y-167900000D03*
X205615000Y-89900000D03*
D12*
X206885000Y-87360000D03*
D13*
X210695000Y-89900000D03*
D12*
X213235000Y-84820000D03*
D11*
X215775000Y-89900000D03*
X49612500Y-89880000D03*
D12*
X50882500Y-87340000D03*
D13*
X54692500Y-89880000D03*
D12*
X57232500Y-84800000D03*
D11*
X59772500Y-89880000D03*
X83340000Y-128900000D03*
D12*
X84610000Y-126360000D03*
D13*
X88420000Y-128900000D03*
D12*
X90960000Y-123820000D03*
D11*
X93500000Y-128900000D03*
X161352500Y-128900000D03*
D12*
X162622500Y-126360000D03*
D13*
X166432500Y-128900000D03*
D12*
X168972500Y-123820000D03*
D11*
X171512500Y-128900000D03*
X244102500Y-148400000D03*
D12*
X245372500Y-145860000D03*
D13*
X249182500Y-148400000D03*
D12*
X251722500Y-143320000D03*
D11*
X254262500Y-148400000D03*
X282615000Y-167900000D03*
D12*
X283885000Y-165360000D03*
D13*
X287695000Y-167900000D03*
D12*
X290235000Y-162820000D03*
D11*
X292775000Y-167900000D03*
X224602500Y-148400000D03*
D12*
X225872500Y-145860000D03*
D13*
X229682500Y-148400000D03*
D12*
X232222500Y-143320000D03*
D11*
X234762500Y-148400000D03*
D14*
X303132500Y-121900000D03*
D13*
X303132500Y-137140000D03*
D11*
X309952500Y-128900000D03*
D12*
X311222500Y-126360000D03*
D13*
X315032500Y-128900000D03*
D12*
X317572500Y-123820000D03*
D11*
X320112500Y-128900000D03*
D14*
X326932500Y-121900000D03*
D13*
X326932500Y-137140000D03*
D11*
X137015000Y-109400000D03*
D12*
X138285000Y-106860000D03*
D13*
X142095000Y-109400000D03*
D12*
X144635000Y-104320000D03*
D11*
X147175000Y-109400000D03*
X225090000Y-89900000D03*
D12*
X226360000Y-87360000D03*
D13*
X230170000Y-89900000D03*
D12*
X232710000Y-84820000D03*
D11*
X235250000Y-89900000D03*
X293015000Y-109400000D03*
D12*
X294285000Y-106860000D03*
D13*
X298095000Y-109400000D03*
D12*
X300635000Y-104320000D03*
D11*
X303175000Y-109400000D03*
D14*
X305532500Y-82900000D03*
D13*
X305532500Y-98140000D03*
D11*
X312352500Y-89900000D03*
D12*
X313622500Y-87360000D03*
D13*
X317432500Y-89900000D03*
D12*
X319972500Y-84820000D03*
D11*
X322512500Y-89900000D03*
D14*
X329332500Y-82900000D03*
D13*
X329332500Y-98140000D03*
D11*
X88602500Y-89900000D03*
D12*
X89872500Y-87360000D03*
D13*
X93682500Y-89900000D03*
D12*
X96222500Y-84820000D03*
D11*
X98762500Y-89900000D03*
X341365000Y-167900000D03*
D12*
X342635000Y-165360000D03*
D13*
X346445000Y-167900000D03*
D12*
X348985000Y-162820000D03*
D11*
X351525000Y-167900000D03*
X283615000Y-89900000D03*
D12*
X284885000Y-87360000D03*
D13*
X288695000Y-89900000D03*
D12*
X291235000Y-84820000D03*
D11*
X293775000Y-89900000D03*
X186090000Y-89900000D03*
D12*
X187360000Y-87360000D03*
D13*
X191170000Y-89900000D03*
D12*
X193710000Y-84820000D03*
D11*
X196250000Y-89900000D03*
D14*
X52332500Y-141400000D03*
D13*
X52332500Y-156640000D03*
D11*
X59152500Y-148400000D03*
D12*
X60422500Y-145860000D03*
D13*
X64232500Y-148400000D03*
D12*
X66772500Y-143320000D03*
D11*
X69312500Y-148400000D03*
D14*
X76132500Y-141400000D03*
D13*
X76132500Y-156640000D03*
D11*
X243115000Y-167900000D03*
D12*
X244385000Y-165360000D03*
D13*
X248195000Y-167900000D03*
D12*
X250735000Y-162820000D03*
D11*
X253275000Y-167900000D03*
X122365000Y-128900000D03*
D12*
X123635000Y-126360000D03*
D13*
X127445000Y-128900000D03*
D12*
X129985000Y-123820000D03*
D11*
X132525000Y-128900000D03*
X146590000Y-148400000D03*
D12*
X147860000Y-145860000D03*
D13*
X151670000Y-148400000D03*
D12*
X154210000Y-143320000D03*
D11*
X156750000Y-148400000D03*
X180852500Y-128900000D03*
D12*
X182122500Y-126360000D03*
D13*
X185932500Y-128900000D03*
D12*
X188472500Y-123820000D03*
D11*
X191012500Y-128900000D03*
X98102500Y-109400000D03*
D12*
X99372500Y-106860000D03*
D13*
X103182500Y-109400000D03*
D12*
X105722500Y-104320000D03*
D11*
X108262500Y-109400000D03*
X127590000Y-89900000D03*
D12*
X128860000Y-87360000D03*
D13*
X132670000Y-89900000D03*
D12*
X135210000Y-84820000D03*
D11*
X137750000Y-89900000D03*
X166090000Y-148400000D03*
D12*
X167360000Y-145860000D03*
D13*
X171170000Y-148400000D03*
D12*
X173710000Y-143320000D03*
D11*
X176250000Y-148400000D03*
X215027500Y-109400000D03*
D12*
X216297500Y-106860000D03*
D13*
X220107500Y-109400000D03*
D12*
X222647500Y-104320000D03*
D11*
X225187500Y-109400000D03*
X244590000Y-89900000D03*
D12*
X245860000Y-87360000D03*
D13*
X249670000Y-89900000D03*
D12*
X252210000Y-84820000D03*
D11*
X254750000Y-89900000D03*
X69115000Y-89925000D03*
D12*
X70385000Y-87385000D03*
D13*
X74195000Y-89925000D03*
D12*
X76735000Y-84845000D03*
D11*
X79275000Y-89925000D03*
X108102500Y-89900000D03*
D12*
X109372500Y-87360000D03*
D13*
X113182500Y-89900000D03*
D12*
X115722500Y-84820000D03*
D11*
X118262500Y-89900000D03*
X147115000Y-89900000D03*
D12*
X148385000Y-87360000D03*
D13*
X152195000Y-89900000D03*
D12*
X154735000Y-84820000D03*
D11*
X157275000Y-89900000D03*
X54352500Y-109400000D03*
D12*
X55622500Y-106860000D03*
D13*
X59432500Y-109400000D03*
D12*
X61972500Y-104320000D03*
D11*
X64512500Y-109400000D03*
D15*
X333452500Y-116130000D03*
D16*
X333452500Y-118670000D03*
D17*
X343167500Y-86505000D03*
X348947500Y-86505000D03*
D18*
X341737500Y-82825000D03*
D19*
X341737500Y-87025000D03*
D18*
X350377500Y-82825000D03*
D19*
X350377500Y-87025000D03*
M02*
