M48
; DRILL file {KiCad 7.0.7} date Sun Dec 10 00:54:27 2023
; FORMAT={-:-/ absolute / metric / decimal}
; #@! TF.CreationDate,2023-12-10T00:54:27-06:00
; #@! TF.GenerationSoftware,Kicad,Pcbnew,7.0.7
; #@! TF.FileFunction,NonPlated,1,2,NPTH
FMAT,2
METRIC
; #@! TA.AperFunction,NonPlated,NPTH,ComponentDrill
T1C0.650
; #@! TA.AperFunction,NonPlated,NPTH,ComponentDrill
T2C1.700
; #@! TA.AperFunction,NonPlated,NPTH,ComponentDrill
T3C3.000
; #@! TA.AperFunction,NonPlated,NPTH,ComponentDrill
T4C3.050
; #@! TA.AperFunction,NonPlated,NPTH,ComponentDrill
T5C4.000
%
G90
G05
T1
X343.167Y-86.505
X348.947Y-86.505
T2
X49.612Y-89.88
X52.002Y-167.9
X54.352Y-109.4
X56.752Y-128.9
X59.152Y-148.4
X59.772Y-89.88
X62.162Y-167.9
X64.513Y-109.4
X66.912Y-128.9
X69.115Y-89.925
X69.312Y-148.4
X76.352Y-167.9
X78.602Y-109.4
X79.275Y-89.925
X83.34Y-128.9
X86.513Y-167.9
X88.09Y-148.4
X88.602Y-89.9
X88.763Y-109.4
X93.5Y-128.9
X98.102Y-109.4
X98.25Y-148.4
X98.762Y-89.9
X100.852Y-167.9
X102.865Y-128.9
X107.615Y-148.4
X108.102Y-89.9
X108.262Y-109.4
X111.012Y-167.9
X113.025Y-128.9
X117.527Y-109.4
X117.775Y-148.4
X118.262Y-89.9
X122.365Y-128.9
X127.115Y-148.4
X127.59Y-89.9
X127.688Y-109.4
X132.525Y-128.9
X137.015Y-109.4
X137.275Y-148.4
X137.75Y-89.9
X141.84Y-128.9
X146.59Y-148.4
X147.115Y-89.9
X147.175Y-109.4
X152.0Y-128.9
X156.502Y-109.4
X156.75Y-148.4
X157.275Y-89.9
X161.352Y-128.9
X166.09Y-148.4
X166.615Y-89.9
X166.662Y-109.4
X171.512Y-128.9
X173.352Y-167.9
X176.002Y-109.4
X176.25Y-148.4
X176.775Y-89.9
X180.852Y-128.9
X183.512Y-167.9
X185.59Y-148.4
X186.09Y-89.9
X186.162Y-109.4
X191.012Y-128.9
X195.502Y-109.4
X195.75Y-148.4
X196.25Y-89.9
X200.352Y-128.9
X205.09Y-148.4
X205.615Y-89.9
X205.662Y-109.4
X210.512Y-128.9
X215.028Y-109.4
X215.25Y-148.4
X215.775Y-89.9
X219.852Y-128.9
X224.602Y-148.4
X225.09Y-89.9
X225.188Y-109.4
X230.012Y-128.9
X234.515Y-109.4
X234.762Y-148.4
X235.25Y-89.9
X239.365Y-128.9
X243.115Y-167.9
X244.102Y-148.4
X244.59Y-89.9
X244.675Y-109.4
X249.525Y-128.9
X253.275Y-167.9
X254.002Y-109.4
X254.262Y-148.4
X254.75Y-89.9
X258.84Y-128.9
X262.84Y-167.9
X263.602Y-148.4
X264.09Y-89.9
X264.162Y-109.4
X269.0Y-128.9
X273.0Y-167.9
X273.502Y-109.4
X273.762Y-148.4
X274.25Y-89.9
X278.365Y-128.9
X282.615Y-167.9
X283.615Y-89.9
X283.662Y-109.4
X288.525Y-128.9
X292.775Y-167.9
X292.852Y-148.4
X293.015Y-109.4
X293.775Y-89.9
X302.34Y-167.9
X303.012Y-148.4
X303.175Y-109.4
X309.952Y-128.9
X312.352Y-89.9
X312.5Y-167.9
X317.092Y-109.4
X320.113Y-128.9
X321.852Y-148.4
X321.865Y-167.9
X322.512Y-89.9
X327.252Y-109.4
X332.012Y-148.4
X332.025Y-167.9
X341.365Y-167.9
X351.525Y-167.9
T3
X50.883Y-87.34
X53.273Y-165.36
X55.622Y-106.86
X57.232Y-84.8
X58.023Y-126.36
X59.622Y-162.82
X60.422Y-145.86
X61.972Y-104.32
X64.373Y-123.82
X66.772Y-143.32
X70.385Y-87.385
X76.735Y-84.845
X77.623Y-165.36
X79.873Y-106.86
X83.972Y-162.82
X84.61Y-126.36
X86.222Y-104.32
X89.36Y-145.86
X89.873Y-87.36
X90.96Y-123.82
X95.71Y-143.32
X96.222Y-84.82
X99.373Y-106.86
X102.123Y-165.36
X104.135Y-126.36
X105.722Y-104.32
X108.472Y-162.82
X108.885Y-145.86
X109.372Y-87.36
X110.485Y-123.82
X115.235Y-143.32
X115.722Y-84.82
X118.797Y-106.86
X123.635Y-126.36
X125.147Y-104.32
X128.385Y-145.86
X128.86Y-87.36
X129.985Y-123.82
X134.735Y-143.32
X135.21Y-84.82
X138.285Y-106.86
X143.11Y-126.36
X144.635Y-104.32
X147.86Y-145.86
X148.385Y-87.36
X149.46Y-123.82
X154.21Y-143.32
X154.735Y-84.82
X157.772Y-106.86
X162.623Y-126.36
X164.123Y-104.32
X167.36Y-145.86
X167.885Y-87.36
X168.972Y-123.82
X173.71Y-143.32
X174.235Y-84.82
X174.623Y-165.36
X177.272Y-106.86
X180.972Y-162.82
X182.123Y-126.36
X183.623Y-104.32
X186.86Y-145.86
X187.36Y-87.36
X188.472Y-123.82
X193.21Y-143.32
X193.71Y-84.82
X196.772Y-106.86
X201.623Y-126.36
X203.123Y-104.32
X206.36Y-145.86
X206.885Y-87.36
X207.972Y-123.82
X212.71Y-143.32
X213.235Y-84.82
X216.297Y-106.86
X221.123Y-126.36
X222.647Y-104.32
X225.873Y-145.86
X226.36Y-87.36
X227.472Y-123.82
X232.222Y-143.32
X232.71Y-84.82
X235.785Y-106.86
X240.635Y-126.36
X242.135Y-104.32
X244.385Y-165.36
X245.373Y-145.86
X245.86Y-87.36
X246.985Y-123.82
X250.735Y-162.82
X251.722Y-143.32
X252.21Y-84.82
X255.272Y-106.86
X260.11Y-126.36
X261.623Y-104.32
X264.11Y-165.36
X264.873Y-145.86
X265.36Y-87.36
X266.46Y-123.82
X270.46Y-162.82
X271.222Y-143.32
X271.71Y-84.82
X274.772Y-106.86
X279.635Y-126.36
X281.123Y-104.32
X283.885Y-165.36
X284.885Y-87.36
X285.985Y-123.82
X290.235Y-162.82
X291.235Y-84.82
X294.123Y-145.86
X294.285Y-106.86
X300.472Y-143.32
X300.635Y-104.32
X303.61Y-165.36
X309.96Y-162.82
X311.222Y-126.36
X313.623Y-87.36
X317.572Y-123.82
X318.363Y-106.86
X319.972Y-84.82
X323.123Y-145.86
X323.135Y-165.36
X324.712Y-104.32
X329.472Y-143.32
X329.485Y-162.82
X342.635Y-165.36
X348.985Y-162.82
T4
X52.332Y-141.4
X76.132Y-141.4
X128.433Y-160.9
X228.432Y-160.9
X286.032Y-141.4
X303.132Y-121.9
X305.532Y-82.9
X309.832Y-141.4
X326.933Y-121.9
X329.332Y-82.9
T5
X52.332Y-156.64
X54.692Y-89.88
X57.082Y-167.9
X59.432Y-109.4
X61.832Y-128.9
X64.233Y-148.4
X74.195Y-89.925
X76.132Y-156.64
X81.432Y-167.9
X83.682Y-109.4
X88.42Y-128.9
X93.17Y-148.4
X93.682Y-89.9
X103.182Y-109.4
X105.932Y-167.9
X107.945Y-128.9
X112.695Y-148.4
X113.182Y-89.9
X122.607Y-109.4
X127.445Y-128.9
X128.433Y-176.14
X132.195Y-148.4
X132.67Y-89.9
X142.095Y-109.4
X146.92Y-128.9
X151.67Y-148.4
X152.195Y-89.9
X161.582Y-109.4
X166.433Y-128.9
X171.17Y-148.4
X171.695Y-89.9
X178.433Y-167.9
X181.082Y-109.4
X185.933Y-128.9
X190.67Y-148.4
X191.17Y-89.9
X200.582Y-109.4
X205.433Y-128.9
X210.17Y-148.4
X210.695Y-89.9
X220.107Y-109.4
X224.932Y-128.9
X228.432Y-176.14
X229.682Y-148.4
X230.17Y-89.9
X239.595Y-109.4
X244.445Y-128.9
X248.195Y-167.9
X249.182Y-148.4
X249.67Y-89.9
X259.082Y-109.4
X263.92Y-128.9
X267.92Y-167.9
X268.683Y-148.4
X269.17Y-89.9
X278.582Y-109.4
X283.445Y-128.9
X286.032Y-156.64
X287.695Y-167.9
X288.695Y-89.9
X297.933Y-148.4
X298.095Y-109.4
X303.132Y-137.14
X305.532Y-98.14
X307.42Y-167.9
X309.832Y-156.64
X315.032Y-128.9
X317.433Y-89.9
X322.173Y-109.4
X326.933Y-137.14
X326.933Y-148.4
X326.945Y-167.9
X329.332Y-98.14
X346.445Y-167.9
T5
X358.0Y-91.05G85X358.0Y-103.05
G05
T0
M30
