%TF.GenerationSoftware,KiCad,Pcbnew,7.0.7*%
%TF.CreationDate,2023-12-09T22:14:26-06:00*%
%TF.ProjectId,Keyboard,4b657962-6f61-4726-942e-6b696361645f,rev?*%
%TF.SameCoordinates,Original*%
%TF.FileFunction,Soldermask,Bot*%
%TF.FilePolarity,Negative*%
%FSLAX46Y46*%
G04 Gerber Fmt 4.6, Leading zero omitted, Abs format (unit mm)*
G04 Created by KiCad (PCBNEW 7.0.7) date 2023-12-09 22:14:26*
%MOMM*%
%LPD*%
G01*
G04 APERTURE LIST*
G04 Aperture macros list*
%AMRoundRect*
0 Rectangle with rounded corners*
0 $1 Rounding radius*
0 $2 $3 $4 $5 $6 $7 $8 $9 X,Y pos of 4 corners*
0 Add a 4 corners polygon primitive as box body*
4,1,4,$2,$3,$4,$5,$6,$7,$8,$9,$2,$3,0*
0 Add four circle primitives for the rounded corners*
1,1,$1+$1,$2,$3*
1,1,$1+$1,$4,$5*
1,1,$1+$1,$6,$7*
1,1,$1+$1,$8,$9*
0 Add four rect primitives between the rounded corners*
20,1,$1+$1,$2,$3,$4,$5,0*
20,1,$1+$1,$4,$5,$6,$7,0*
20,1,$1+$1,$6,$7,$8,$9,0*
20,1,$1+$1,$8,$9,$2,$3,0*%
G04 Aperture macros list end*
%ADD10O,4.000000X16.000000*%
%ADD11R,2.100000X1.400000*%
%ADD12RoundRect,0.135000X0.185000X-0.135000X0.185000X0.135000X-0.185000X0.135000X-0.185000X-0.135000X0*%
%ADD13R,2.550000X2.000000*%
%ADD14C,1.700000*%
%ADD15C,3.000000*%
%ADD16C,4.000000*%
%ADD17C,3.050000*%
%ADD18RoundRect,0.237500X0.287500X0.237500X-0.287500X0.237500X-0.287500X-0.237500X0.287500X-0.237500X0*%
%ADD19RoundRect,0.135000X-0.185000X0.135000X-0.185000X-0.135000X0.185000X-0.135000X0.185000X0.135000X0*%
%ADD20RoundRect,0.135000X0.135000X0.185000X-0.135000X0.185000X-0.135000X-0.185000X0.135000X-0.185000X0*%
%ADD21RoundRect,0.237500X0.237500X-0.287500X0.237500X0.287500X-0.237500X0.287500X-0.237500X-0.287500X0*%
%ADD22RoundRect,0.218750X0.256250X-0.218750X0.256250X0.218750X-0.256250X0.218750X-0.256250X-0.218750X0*%
%ADD23RoundRect,0.135000X-0.135000X-0.185000X0.135000X-0.185000X0.135000X0.185000X-0.135000X0.185000X0*%
%ADD24RoundRect,0.140000X-0.140000X-0.170000X0.140000X-0.170000X0.140000X0.170000X-0.140000X0.170000X0*%
%ADD25RoundRect,0.140000X0.170000X-0.140000X0.170000X0.140000X-0.170000X0.140000X-0.170000X-0.140000X0*%
%ADD26RoundRect,0.250000X-0.475000X0.250000X-0.475000X-0.250000X0.475000X-0.250000X0.475000X0.250000X0*%
%ADD27RoundRect,0.250000X-0.845000X0.620000X-0.845000X-0.620000X0.845000X-0.620000X0.845000X0.620000X0*%
%ADD28O,2.190000X1.740000*%
%ADD29RoundRect,0.150000X0.150000X-0.512500X0.150000X0.512500X-0.150000X0.512500X-0.150000X-0.512500X0*%
%ADD30R,0.304800X0.254000*%
%ADD31R,0.304800X0.522199*%
%ADD32R,0.800000X1.200000*%
%ADD33R,1.200000X0.800000*%
%ADD34RoundRect,0.102000X-0.650000X0.150000X-0.650000X-0.150000X0.650000X-0.150000X0.650000X0.150000X0*%
%ADD35RoundRect,0.102000X-1.100000X0.900000X-1.100000X-0.900000X1.100000X-0.900000X1.100000X0.900000X0*%
%ADD36RoundRect,0.102000X-0.750000X-0.450000X0.750000X-0.450000X0.750000X0.450000X-0.750000X0.450000X0*%
%ADD37RoundRect,0.102000X-0.450000X-0.750000X0.450000X-0.750000X0.450000X0.750000X-0.450000X0.750000X0*%
%ADD38RoundRect,0.102000X-0.450000X-0.450000X0.450000X-0.450000X0.450000X0.450000X-0.450000X0.450000X0*%
%ADD39C,0.650000*%
%ADD40R,0.600000X1.240000*%
%ADD41R,0.300000X1.240000*%
%ADD42O,1.000000X1.800000*%
%ADD43O,1.000000X2.100000*%
%ADD44RoundRect,0.140000X0.140000X0.170000X-0.140000X0.170000X-0.140000X-0.170000X0.140000X-0.170000X0*%
%ADD45RoundRect,0.250000X-0.850000X-0.350000X0.850000X-0.350000X0.850000X0.350000X-0.850000X0.350000X0*%
%ADD46RoundRect,0.249997X-2.950003X-2.650003X2.950003X-2.650003X2.950003X2.650003X-2.950003X2.650003X0*%
%ADD47RoundRect,0.200000X-0.200000X-0.275000X0.200000X-0.275000X0.200000X0.275000X-0.200000X0.275000X0*%
G04 APERTURE END LIST*
G36*
X353209900Y-85345210D02*
G01*
X353578200Y-85345200D01*
X353578200Y-85954800D01*
X352536800Y-85954800D01*
X352536800Y-85345200D01*
X352905100Y-85345210D01*
X352905100Y-84823012D01*
X353209900Y-84823012D01*
X353209900Y-85345210D01*
G37*
D10*
X358000000Y-97050000D03*
D11*
X358925000Y-175800000D03*
X359025000Y-171300000D03*
X349825000Y-171300000D03*
X349825000Y-175800000D03*
D12*
X357100000Y-168360000D03*
X357100000Y-167340000D03*
D13*
X54610000Y-126238000D03*
D14*
X56752500Y-128900000D03*
D15*
X58022500Y-126360000D03*
D16*
X61832500Y-128900000D03*
D15*
X64372500Y-123820000D03*
D14*
X66912500Y-128900000D03*
D13*
X56933000Y-145796000D03*
X49821000Y-165354000D03*
D14*
X263602500Y-148400000D03*
D15*
X264872500Y-145860000D03*
D16*
X268682500Y-148400000D03*
D15*
X271222500Y-143320000D03*
D14*
X273762500Y-148400000D03*
D13*
X274697500Y-143320000D03*
X261272500Y-145860000D03*
D14*
X156502500Y-109400000D03*
D15*
X157772500Y-106860000D03*
D16*
X161582500Y-109400000D03*
D15*
X164122500Y-104320000D03*
D14*
X166662500Y-109400000D03*
D13*
X167597500Y-104320000D03*
X154172500Y-106860000D03*
D14*
X278365000Y-128900000D03*
D15*
X279635000Y-126360000D03*
D16*
X283445000Y-128900000D03*
D15*
X285985000Y-123820000D03*
D14*
X288525000Y-128900000D03*
D13*
X289460000Y-123820000D03*
X276035000Y-126360000D03*
D14*
X100852500Y-167900000D03*
D15*
X102122500Y-165360000D03*
D16*
X105932500Y-167900000D03*
D15*
X108472500Y-162820000D03*
D14*
X111012500Y-167900000D03*
X273502500Y-109400000D03*
D15*
X274772500Y-106860000D03*
D16*
X278582500Y-109400000D03*
D15*
X281122500Y-104320000D03*
D14*
X283662500Y-109400000D03*
D13*
X284597500Y-104320000D03*
X271172500Y-106860000D03*
D14*
X262840000Y-167900000D03*
D15*
X264110000Y-165360000D03*
D16*
X267920000Y-167900000D03*
D15*
X270460000Y-162820000D03*
D14*
X273000000Y-167900000D03*
D13*
X273935000Y-162820000D03*
X260510000Y-165360000D03*
X65278000Y-104394000D03*
D14*
X234515000Y-109400000D03*
D15*
X235785000Y-106860000D03*
D16*
X239595000Y-109400000D03*
D15*
X242135000Y-104320000D03*
D14*
X244675000Y-109400000D03*
D13*
X245610000Y-104320000D03*
X232185000Y-106860000D03*
X328168000Y-104394000D03*
D14*
X258840000Y-128900000D03*
D15*
X260110000Y-126360000D03*
D16*
X263920000Y-128900000D03*
D15*
X266460000Y-123820000D03*
D14*
X269000000Y-128900000D03*
D13*
X269935000Y-123820000D03*
X256510000Y-126360000D03*
X63246000Y-162814000D03*
D14*
X317092500Y-109400000D03*
D15*
X318362500Y-106860000D03*
D16*
X322172500Y-109400000D03*
D15*
X324712500Y-104320000D03*
D14*
X327252500Y-109400000D03*
X302340000Y-167900000D03*
D15*
X303610000Y-165360000D03*
D16*
X307420000Y-167900000D03*
D15*
X309960000Y-162820000D03*
D14*
X312500000Y-167900000D03*
D13*
X313435000Y-162820000D03*
X300010000Y-165360000D03*
D14*
X321852500Y-148400000D03*
D15*
X323122500Y-145860000D03*
D16*
X326932500Y-148400000D03*
D15*
X329472500Y-143320000D03*
D14*
X332012500Y-148400000D03*
D13*
X332947500Y-143320000D03*
X319522500Y-145860000D03*
D14*
X200352500Y-128900000D03*
D15*
X201622500Y-126360000D03*
D16*
X205432500Y-128900000D03*
D15*
X207972500Y-123820000D03*
D14*
X210512500Y-128900000D03*
D13*
X211447500Y-123820000D03*
X198022500Y-126360000D03*
D14*
X52002500Y-167900000D03*
D15*
X53272500Y-165360000D03*
D16*
X57082500Y-167900000D03*
D15*
X59622500Y-162820000D03*
D14*
X62162500Y-167900000D03*
X321865000Y-167900000D03*
D15*
X323135000Y-165360000D03*
D16*
X326945000Y-167900000D03*
D15*
X329485000Y-162820000D03*
D14*
X332025000Y-167900000D03*
D13*
X332960000Y-162820000D03*
X319535000Y-165360000D03*
D14*
X239365000Y-128900000D03*
D15*
X240635000Y-126360000D03*
D16*
X244445000Y-128900000D03*
D15*
X246985000Y-123820000D03*
D14*
X249525000Y-128900000D03*
D13*
X250460000Y-123820000D03*
X237035000Y-126360000D03*
D14*
X166615000Y-89900000D03*
D15*
X167885000Y-87360000D03*
D16*
X171695000Y-89900000D03*
D15*
X174235000Y-84820000D03*
D14*
X176775000Y-89900000D03*
D13*
X177710000Y-84820000D03*
X164285000Y-87360000D03*
D14*
X264090000Y-89900000D03*
D15*
X265360000Y-87360000D03*
D16*
X269170000Y-89900000D03*
D15*
X271710000Y-84820000D03*
D14*
X274250000Y-89900000D03*
D13*
X275185000Y-84820000D03*
X261760000Y-87360000D03*
D14*
X107615000Y-148400000D03*
D15*
X108885000Y-145860000D03*
D16*
X112695000Y-148400000D03*
D15*
X115235000Y-143320000D03*
D14*
X117775000Y-148400000D03*
D13*
X118710000Y-143320000D03*
X105285000Y-145860000D03*
D14*
X185590000Y-148400000D03*
D15*
X186860000Y-145860000D03*
D16*
X190670000Y-148400000D03*
D15*
X193210000Y-143320000D03*
D14*
X195750000Y-148400000D03*
D13*
X196685000Y-143320000D03*
X183260000Y-145860000D03*
D14*
X102865000Y-128900000D03*
D15*
X104135000Y-126360000D03*
D16*
X107945000Y-128900000D03*
D15*
X110485000Y-123820000D03*
D14*
X113025000Y-128900000D03*
D13*
X113960000Y-123820000D03*
X100535000Y-126360000D03*
D17*
X128432500Y-160900000D03*
D16*
X128432500Y-176140000D03*
D14*
X173352500Y-167900000D03*
D15*
X174622500Y-165360000D03*
D16*
X178432500Y-167900000D03*
D15*
X180972500Y-162820000D03*
D14*
X183512500Y-167900000D03*
D17*
X228432500Y-160900000D03*
D16*
X228432500Y-176140000D03*
D14*
X117527500Y-109400000D03*
D15*
X118797500Y-106860000D03*
D16*
X122607500Y-109400000D03*
D15*
X125147500Y-104320000D03*
D14*
X127687500Y-109400000D03*
D13*
X128622500Y-104320000D03*
X115197500Y-106860000D03*
D17*
X286032500Y-141400000D03*
D16*
X286032500Y-156640000D03*
D14*
X292852500Y-148400000D03*
D15*
X294122500Y-145860000D03*
D16*
X297932500Y-148400000D03*
D15*
X300472500Y-143320000D03*
D14*
X303012500Y-148400000D03*
D17*
X309832500Y-141400000D03*
D16*
X309832500Y-156640000D03*
D14*
X254002500Y-109400000D03*
D15*
X255272500Y-106860000D03*
D16*
X259082500Y-109400000D03*
D15*
X261622500Y-104320000D03*
D14*
X264162500Y-109400000D03*
D13*
X265097500Y-104320000D03*
X251672500Y-106860000D03*
D14*
X88090000Y-148400000D03*
D15*
X89360000Y-145860000D03*
D16*
X93170000Y-148400000D03*
D15*
X95710000Y-143320000D03*
D14*
X98250000Y-148400000D03*
D13*
X99185000Y-143320000D03*
X85760000Y-145860000D03*
X70358000Y-143256000D03*
X290613000Y-145796000D03*
D14*
X176002500Y-109400000D03*
D15*
X177272500Y-106860000D03*
D16*
X181082500Y-109400000D03*
D15*
X183622500Y-104320000D03*
D14*
X186162500Y-109400000D03*
D13*
X187097500Y-104320000D03*
X173672500Y-106860000D03*
D14*
X205090000Y-148400000D03*
D15*
X206360000Y-145860000D03*
D16*
X210170000Y-148400000D03*
D15*
X212710000Y-143320000D03*
D14*
X215250000Y-148400000D03*
D13*
X216185000Y-143320000D03*
X202760000Y-145860000D03*
X171233000Y-165354000D03*
D14*
X195502500Y-109400000D03*
D15*
X196772500Y-106860000D03*
D16*
X200582500Y-109400000D03*
D15*
X203122500Y-104320000D03*
D14*
X205662500Y-109400000D03*
D13*
X206597500Y-104320000D03*
X193172500Y-106860000D03*
X310171000Y-87376000D03*
X67564000Y-123698000D03*
D14*
X219852500Y-128900000D03*
D15*
X221122500Y-126360000D03*
D16*
X224932500Y-128900000D03*
D15*
X227472500Y-123820000D03*
D14*
X230012500Y-128900000D03*
D13*
X230947500Y-123820000D03*
X217522500Y-126360000D03*
D14*
X127115000Y-148400000D03*
D15*
X128385000Y-145860000D03*
D16*
X132195000Y-148400000D03*
D15*
X134735000Y-143320000D03*
D14*
X137275000Y-148400000D03*
D13*
X138210000Y-143320000D03*
X124785000Y-145860000D03*
D14*
X78602500Y-109400000D03*
D15*
X79872500Y-106860000D03*
D16*
X83682500Y-109400000D03*
D15*
X86222500Y-104320000D03*
D14*
X88762500Y-109400000D03*
D13*
X89697500Y-104320000D03*
X76272500Y-106860000D03*
D14*
X141840000Y-128900000D03*
D15*
X143110000Y-126360000D03*
D16*
X146920000Y-128900000D03*
D15*
X149460000Y-123820000D03*
D14*
X152000000Y-128900000D03*
D13*
X152935000Y-123820000D03*
X139510000Y-126360000D03*
D14*
X76352500Y-167900000D03*
D15*
X77622500Y-165360000D03*
D16*
X81432500Y-167900000D03*
D15*
X83972500Y-162820000D03*
D14*
X86512500Y-167900000D03*
X205615000Y-89900000D03*
D15*
X206885000Y-87360000D03*
D16*
X210695000Y-89900000D03*
D15*
X213235000Y-84820000D03*
D14*
X215775000Y-89900000D03*
D13*
X216710000Y-84820000D03*
X203285000Y-87360000D03*
D14*
X49612500Y-89880000D03*
D15*
X50882500Y-87340000D03*
D16*
X54692500Y-89880000D03*
D15*
X57232500Y-84800000D03*
D14*
X59772500Y-89880000D03*
D13*
X60707500Y-84800000D03*
X47282500Y-87340000D03*
X307631000Y-126492000D03*
X314743000Y-106934000D03*
D14*
X83340000Y-128900000D03*
D15*
X84610000Y-126360000D03*
D16*
X88420000Y-128900000D03*
D15*
X90960000Y-123820000D03*
D14*
X93500000Y-128900000D03*
D13*
X94435000Y-123820000D03*
X81010000Y-126360000D03*
D14*
X161352500Y-128900000D03*
D15*
X162622500Y-126360000D03*
D16*
X166432500Y-128900000D03*
D15*
X168972500Y-123820000D03*
D14*
X171512500Y-128900000D03*
D13*
X172447500Y-123820000D03*
X159022500Y-126360000D03*
D14*
X244102500Y-148400000D03*
D15*
X245372500Y-145860000D03*
D16*
X249182500Y-148400000D03*
D15*
X251722500Y-143320000D03*
D14*
X254262500Y-148400000D03*
D13*
X255197500Y-143320000D03*
X241772500Y-145860000D03*
D14*
X282615000Y-167900000D03*
D15*
X283885000Y-165360000D03*
D16*
X287695000Y-167900000D03*
D15*
X290235000Y-162820000D03*
D14*
X292775000Y-167900000D03*
D13*
X293710000Y-162820000D03*
X280285000Y-165360000D03*
X87630000Y-162814000D03*
X304038000Y-143256000D03*
X184658000Y-162814000D03*
D14*
X224602500Y-148400000D03*
D15*
X225872500Y-145860000D03*
D16*
X229682500Y-148400000D03*
D15*
X232222500Y-143320000D03*
D14*
X234762500Y-148400000D03*
D13*
X235697500Y-143320000D03*
X222272500Y-145860000D03*
D17*
X303132500Y-121900000D03*
D16*
X303132500Y-137140000D03*
D14*
X309952500Y-128900000D03*
D15*
X311222500Y-126360000D03*
D16*
X315032500Y-128900000D03*
D15*
X317572500Y-123820000D03*
D14*
X320112500Y-128900000D03*
D17*
X326932500Y-121900000D03*
D16*
X326932500Y-137140000D03*
D14*
X137015000Y-109400000D03*
D15*
X138285000Y-106860000D03*
D16*
X142095000Y-109400000D03*
D15*
X144635000Y-104320000D03*
D14*
X147175000Y-109400000D03*
D13*
X148110000Y-104320000D03*
X134685000Y-106860000D03*
D14*
X225090000Y-89900000D03*
D15*
X226360000Y-87360000D03*
D16*
X230170000Y-89900000D03*
D15*
X232710000Y-84820000D03*
D14*
X235250000Y-89900000D03*
D13*
X236185000Y-84820000D03*
X222760000Y-87360000D03*
D14*
X293015000Y-109400000D03*
D15*
X294285000Y-106860000D03*
D16*
X298095000Y-109400000D03*
D15*
X300635000Y-104320000D03*
D14*
X303175000Y-109400000D03*
D13*
X304110000Y-104320000D03*
X290685000Y-106860000D03*
D17*
X305532500Y-82900000D03*
D16*
X305532500Y-98140000D03*
D14*
X312352500Y-89900000D03*
D15*
X313622500Y-87360000D03*
D16*
X317432500Y-89900000D03*
D15*
X319972500Y-84820000D03*
D14*
X322512500Y-89900000D03*
D17*
X329332500Y-82900000D03*
D16*
X329332500Y-98140000D03*
D14*
X88602500Y-89900000D03*
D15*
X89872500Y-87360000D03*
D16*
X93682500Y-89900000D03*
D15*
X96222500Y-84820000D03*
D14*
X98762500Y-89900000D03*
D13*
X99697500Y-84820000D03*
X86272500Y-87360000D03*
D14*
X341365000Y-167900000D03*
D15*
X342635000Y-165360000D03*
D16*
X346445000Y-167900000D03*
D15*
X348985000Y-162820000D03*
D14*
X351525000Y-167900000D03*
D13*
X352460000Y-162820000D03*
X339035000Y-165360000D03*
D14*
X283615000Y-89900000D03*
D15*
X284885000Y-87360000D03*
D16*
X288695000Y-89900000D03*
D15*
X291235000Y-84820000D03*
D14*
X293775000Y-89900000D03*
D13*
X294710000Y-84820000D03*
X281285000Y-87360000D03*
X323596000Y-84836000D03*
D14*
X186090000Y-89900000D03*
D15*
X187360000Y-87360000D03*
D16*
X191170000Y-89900000D03*
D15*
X193710000Y-84820000D03*
D14*
X196250000Y-89900000D03*
D13*
X197185000Y-84820000D03*
X183760000Y-87360000D03*
D17*
X52332500Y-141400000D03*
D16*
X52332500Y-156640000D03*
D14*
X59152500Y-148400000D03*
D15*
X60422500Y-145860000D03*
D16*
X64232500Y-148400000D03*
D15*
X66772500Y-143320000D03*
D14*
X69312500Y-148400000D03*
D17*
X76132500Y-141400000D03*
D16*
X76132500Y-156640000D03*
D14*
X243115000Y-167900000D03*
D15*
X244385000Y-165360000D03*
D16*
X248195000Y-167900000D03*
D15*
X250735000Y-162820000D03*
D14*
X253275000Y-167900000D03*
D13*
X254210000Y-162820000D03*
X240785000Y-165360000D03*
D14*
X122365000Y-128900000D03*
D15*
X123635000Y-126360000D03*
D16*
X127445000Y-128900000D03*
D15*
X129985000Y-123820000D03*
D14*
X132525000Y-128900000D03*
D13*
X133460000Y-123820000D03*
X120035000Y-126360000D03*
D14*
X146590000Y-148400000D03*
D15*
X147860000Y-145860000D03*
D16*
X151670000Y-148400000D03*
D15*
X154210000Y-143320000D03*
D14*
X156750000Y-148400000D03*
D13*
X157685000Y-143320000D03*
X144260000Y-145860000D03*
X52070000Y-106934000D03*
D14*
X180852500Y-128900000D03*
D15*
X182122500Y-126360000D03*
D16*
X185932500Y-128900000D03*
D15*
X188472500Y-123820000D03*
D14*
X191012500Y-128900000D03*
D13*
X191947500Y-123820000D03*
X178522500Y-126360000D03*
D14*
X98102500Y-109400000D03*
D15*
X99372500Y-106860000D03*
D16*
X103182500Y-109400000D03*
D15*
X105722500Y-104320000D03*
D14*
X108262500Y-109400000D03*
D13*
X109197500Y-104320000D03*
X95772500Y-106860000D03*
D14*
X127590000Y-89900000D03*
D15*
X128860000Y-87360000D03*
D16*
X132670000Y-89900000D03*
D15*
X135210000Y-84820000D03*
D14*
X137750000Y-89900000D03*
D13*
X138685000Y-84820000D03*
X125260000Y-87360000D03*
X98589000Y-165354000D03*
D14*
X166090000Y-148400000D03*
D15*
X167360000Y-145860000D03*
D16*
X171170000Y-148400000D03*
D15*
X173710000Y-143320000D03*
D14*
X176250000Y-148400000D03*
D13*
X177185000Y-143320000D03*
X163760000Y-145860000D03*
D14*
X215027500Y-109400000D03*
D15*
X216297500Y-106860000D03*
D16*
X220107500Y-109400000D03*
D15*
X222647500Y-104320000D03*
D14*
X225187500Y-109400000D03*
D13*
X226122500Y-104320000D03*
X212697500Y-106860000D03*
X74205000Y-165354000D03*
X112014000Y-162814000D03*
D14*
X244590000Y-89900000D03*
D15*
X245860000Y-87360000D03*
D16*
X249670000Y-89900000D03*
D15*
X252210000Y-84820000D03*
D14*
X254750000Y-89900000D03*
D13*
X255685000Y-84820000D03*
X242260000Y-87360000D03*
D14*
X69115000Y-89925000D03*
D15*
X70385000Y-87385000D03*
D16*
X74195000Y-89925000D03*
D15*
X76735000Y-84845000D03*
D14*
X79275000Y-89925000D03*
D13*
X80210000Y-84845000D03*
X66785000Y-87385000D03*
D14*
X108102500Y-89900000D03*
D15*
X109372500Y-87360000D03*
D16*
X113182500Y-89900000D03*
D15*
X115722500Y-84820000D03*
D14*
X118262500Y-89900000D03*
D13*
X119197500Y-84820000D03*
X105772500Y-87360000D03*
D14*
X147115000Y-89900000D03*
D15*
X148385000Y-87360000D03*
D16*
X152195000Y-89900000D03*
D15*
X154735000Y-84820000D03*
D14*
X157275000Y-89900000D03*
D13*
X158210000Y-84820000D03*
X144785000Y-87360000D03*
X321056000Y-123952000D03*
D14*
X54352500Y-109400000D03*
D15*
X55622500Y-106860000D03*
D16*
X59432500Y-109400000D03*
D15*
X61972500Y-104320000D03*
D14*
X64512500Y-109400000D03*
D18*
X56732500Y-114095000D03*
X54982500Y-114095000D03*
X324177500Y-172640000D03*
X322427500Y-172640000D03*
X54427500Y-171790000D03*
X52677500Y-171790000D03*
X188227500Y-153190000D03*
X186477500Y-153190000D03*
X124652500Y-133140000D03*
X122902500Y-133140000D03*
X51677500Y-94115000D03*
X49927500Y-94115000D03*
D19*
X337932500Y-125140000D03*
X337932500Y-126160000D03*
D18*
X241327500Y-132715000D03*
X239577500Y-132715000D03*
X256412500Y-113290000D03*
X254662500Y-113290000D03*
X294962500Y-113150000D03*
X293212500Y-113150000D03*
X217587500Y-113740000D03*
X215837500Y-113740000D03*
X261027500Y-133065000D03*
X259277500Y-133065000D03*
X245502500Y-172165000D03*
X243752500Y-172165000D03*
X168277500Y-152465000D03*
X166527500Y-152465000D03*
X207877500Y-94240000D03*
X206127500Y-94240000D03*
X236912500Y-113515000D03*
X235162500Y-113515000D03*
D20*
X340092500Y-129150000D03*
X339072500Y-129150000D03*
D18*
X58952500Y-133015000D03*
X57202500Y-133015000D03*
X343352500Y-172515000D03*
X341602500Y-172515000D03*
X149627500Y-94115000D03*
X147877500Y-94115000D03*
D21*
X339432500Y-118925000D03*
X339432500Y-117175000D03*
D22*
X347982500Y-118437500D03*
X347982500Y-116862500D03*
D18*
X315652500Y-94590000D03*
X313902500Y-94590000D03*
D23*
X352797500Y-82400000D03*
X353817500Y-82400000D03*
D18*
X119837500Y-113515000D03*
X118087500Y-113515000D03*
D19*
X358725000Y-131040000D03*
X358725000Y-132060000D03*
D18*
X286402500Y-93940000D03*
X284652500Y-93940000D03*
X314802500Y-133065000D03*
X313052500Y-133065000D03*
X90827500Y-93990000D03*
X89077500Y-93990000D03*
D24*
X358432500Y-123900000D03*
X359392500Y-123900000D03*
D18*
X227152500Y-152715000D03*
X225402500Y-152715000D03*
X227452500Y-93815000D03*
X225702500Y-93815000D03*
X247252500Y-93940000D03*
X245502500Y-93940000D03*
X148702500Y-152215000D03*
X146952500Y-152215000D03*
X266602500Y-93690000D03*
X264852500Y-93690000D03*
D25*
X346182500Y-120380000D03*
X346182500Y-119420000D03*
D20*
X355242500Y-118150000D03*
X354222500Y-118150000D03*
D26*
X358932500Y-126450000D03*
X358932500Y-128350000D03*
D27*
X333452500Y-116130000D03*
D28*
X333452500Y-118670000D03*
D18*
X89927500Y-152340000D03*
X88177500Y-152340000D03*
X61607500Y-153170000D03*
X59857500Y-153170000D03*
X280702500Y-133315000D03*
X278952500Y-133315000D03*
X169202500Y-93865000D03*
X167452500Y-93865000D03*
X304727500Y-172390000D03*
X302977500Y-172390000D03*
D19*
X344682500Y-128140000D03*
X344682500Y-129160000D03*
D18*
X178287500Y-113515000D03*
X176537500Y-113515000D03*
D29*
X352182500Y-119537500D03*
X351232500Y-119537500D03*
X350282500Y-119537500D03*
X350282500Y-117262500D03*
X352182500Y-117262500D03*
D30*
X352507501Y-84949999D03*
D31*
X353057500Y-85084111D03*
D30*
X353607499Y-84949999D03*
X353607499Y-86350001D03*
X353057500Y-86350001D03*
X352507501Y-86350001D03*
D18*
X144502500Y-133615000D03*
X142752500Y-133615000D03*
X246527500Y-152515000D03*
X244777500Y-152515000D03*
D32*
X341582500Y-123850000D03*
X342532500Y-126450000D03*
X340632500Y-126450000D03*
D18*
X103052500Y-171865000D03*
X101302500Y-171865000D03*
D33*
X343732500Y-119800000D03*
X341132500Y-120750000D03*
X341132500Y-118850000D03*
D19*
X343932500Y-116640000D03*
X343932500Y-117660000D03*
D18*
X221877500Y-133065000D03*
X220127500Y-133065000D03*
X129952500Y-93515000D03*
X128202500Y-93515000D03*
D12*
X337600000Y-88110000D03*
X337600000Y-87090000D03*
D32*
X335932500Y-129850000D03*
X336882500Y-132450000D03*
X334982500Y-132450000D03*
D23*
X342422500Y-97400000D03*
X343442500Y-97400000D03*
D18*
X139062500Y-113265000D03*
X137312500Y-113265000D03*
X129527500Y-152215000D03*
X127777500Y-152215000D03*
X266027500Y-152140000D03*
X264277500Y-152140000D03*
D24*
X345202500Y-116900000D03*
X346162500Y-116900000D03*
D18*
X202677500Y-132715000D03*
X200927500Y-132715000D03*
X85877500Y-133140000D03*
X84127500Y-133140000D03*
D20*
X354992500Y-116650000D03*
X353972500Y-116650000D03*
D18*
X158737500Y-113615000D03*
X156987500Y-113615000D03*
X110052500Y-152215000D03*
X108302500Y-152215000D03*
X324177500Y-152515000D03*
X322427500Y-152515000D03*
D20*
X343442500Y-98650000D03*
X342422500Y-98650000D03*
D18*
X110377500Y-93865000D03*
X108627500Y-93865000D03*
D12*
X335682500Y-148185000D03*
X335682500Y-147165000D03*
D18*
X175052500Y-171790000D03*
X173302500Y-171790000D03*
X207827500Y-152840000D03*
X206077500Y-152840000D03*
D25*
X337082500Y-148150000D03*
X337082500Y-147190000D03*
D18*
X275887500Y-113315000D03*
X274137500Y-113315000D03*
D34*
X346432500Y-93400000D03*
X346432500Y-93900000D03*
X346432500Y-94400000D03*
X346432500Y-94900000D03*
X346432500Y-95400000D03*
X346432500Y-95900000D03*
X346432500Y-96400000D03*
X346432500Y-96900000D03*
X346432500Y-97400000D03*
X346432500Y-97900000D03*
X346432500Y-98400000D03*
X346432500Y-98900000D03*
X346432500Y-99400000D03*
X346432500Y-99900000D03*
X346432500Y-100400000D03*
X346432500Y-100900000D03*
D35*
X349682500Y-91500000D03*
X349682500Y-102800000D03*
D36*
X339432500Y-149070000D03*
X339432500Y-147800000D03*
X339432500Y-146530000D03*
X339432500Y-145260000D03*
X339432500Y-143990000D03*
X339432500Y-142720000D03*
X339432500Y-141450000D03*
X339432500Y-140180000D03*
X339432500Y-138910000D03*
X339432500Y-137640000D03*
X339432500Y-136370000D03*
X339432500Y-135100000D03*
X339432500Y-133830000D03*
X339432500Y-132560000D03*
D37*
X341197500Y-131310000D03*
X342467500Y-131310000D03*
X343737500Y-131310000D03*
X345007500Y-131310000D03*
X346277500Y-131310000D03*
X347547500Y-131310000D03*
X348817500Y-131310000D03*
X350087500Y-131310000D03*
X351357500Y-131310000D03*
X352627500Y-131310000D03*
X353897500Y-131310000D03*
X355167500Y-131310000D03*
D36*
X356932500Y-132560000D03*
X356932500Y-133830000D03*
X356932500Y-135100000D03*
X356932500Y-136370000D03*
X356932500Y-137640000D03*
X356932500Y-138910000D03*
X356932500Y-140180000D03*
X356932500Y-141450000D03*
X356932500Y-142720000D03*
X356932500Y-143990000D03*
X356932500Y-145260000D03*
X356932500Y-146530000D03*
X356932500Y-147800000D03*
X356932500Y-149070000D03*
D38*
X346682500Y-141350000D03*
X345282500Y-141350000D03*
X348082500Y-141350000D03*
X345282500Y-139950000D03*
X346682500Y-139950000D03*
X348082500Y-139950000D03*
X345282500Y-142750000D03*
X346682500Y-142750000D03*
X348082500Y-142750000D03*
D18*
X71152500Y-94115000D03*
X69402500Y-94115000D03*
X105352500Y-133140000D03*
X103602500Y-133140000D03*
D39*
X343167500Y-86505000D03*
X348947500Y-86505000D03*
D40*
X342857500Y-87625000D03*
X343657500Y-87625000D03*
D41*
X344807500Y-87625000D03*
X345807500Y-87625000D03*
X346307500Y-87625000D03*
X347307500Y-87625000D03*
D40*
X348457500Y-87625000D03*
X349257500Y-87625000D03*
X349257500Y-87625000D03*
X348457500Y-87625000D03*
D41*
X347807500Y-87625000D03*
X346807500Y-87625000D03*
X345307500Y-87625000D03*
X344307500Y-87625000D03*
D40*
X343657500Y-87625000D03*
X342857500Y-87625000D03*
D42*
X341737500Y-82825000D03*
D43*
X341737500Y-87025000D03*
D42*
X350377500Y-82825000D03*
D43*
X350377500Y-87025000D03*
D44*
X343412500Y-92400000D03*
X342452500Y-92400000D03*
X343412500Y-101150000D03*
X342452500Y-101150000D03*
X343412500Y-93900000D03*
X342452500Y-93900000D03*
D18*
X81152500Y-113265000D03*
X79402500Y-113265000D03*
X78727500Y-171590000D03*
X76977500Y-171590000D03*
X265127500Y-172165000D03*
X263377500Y-172165000D03*
X320017500Y-113440000D03*
X318267500Y-113440000D03*
X188352500Y-94465000D03*
X186602500Y-94465000D03*
D20*
X333442500Y-134150000D03*
X332422500Y-134150000D03*
D18*
X197862500Y-113740000D03*
X196112500Y-113740000D03*
X100742500Y-113740000D03*
X98992500Y-113740000D03*
D44*
X343412500Y-99900000D03*
X342452500Y-99900000D03*
D18*
X285127500Y-172590000D03*
X283377500Y-172590000D03*
D45*
X347982500Y-126680000D03*
X347982500Y-124400000D03*
D46*
X354282500Y-124400000D03*
D45*
X347982500Y-122120000D03*
D20*
X342692500Y-116650000D03*
X341672500Y-116650000D03*
D18*
X294682500Y-152970000D03*
X292932500Y-152970000D03*
X183977500Y-133315000D03*
X182227500Y-133315000D03*
D47*
X353907500Y-119650000D03*
X355557500Y-119650000D03*
D44*
X345162500Y-123650000D03*
X344202500Y-123650000D03*
D18*
X163652500Y-133065000D03*
X161902500Y-133065000D03*
D22*
X335932500Y-127937500D03*
X335932500Y-126362500D03*
M02*
