%TF.GenerationSoftware,KiCad,Pcbnew,7.0.7*%
%TF.CreationDate,2023-12-10T00:54:24-06:00*%
%TF.ProjectId,Keyboard,4b657962-6f61-4726-942e-6b696361645f,rev?*%
%TF.SameCoordinates,Original*%
%TF.FileFunction,Legend,Bot*%
%TF.FilePolarity,Positive*%
%FSLAX46Y46*%
G04 Gerber Fmt 4.6, Leading zero omitted, Abs format (unit mm)*
G04 Created by KiCad (PCBNEW 7.0.7) date 2023-12-10 00:54:24*
%MOMM*%
%LPD*%
G01*
G04 APERTURE LIST*
%ADD10C,0.120000*%
%ADD11C,0.100000*%
%ADD12C,0.152400*%
%ADD13C,0.200000*%
%ADD14C,0.127000*%
G04 APERTURE END LIST*
D10*
X57517500Y-114830000D02*
X55057500Y-114830000D01*
X57517500Y-113360000D02*
X57517500Y-114830000D01*
X55057500Y-113360000D02*
X57517500Y-113360000D01*
X324962500Y-173375000D02*
X322502500Y-173375000D01*
X324962500Y-171905000D02*
X324962500Y-173375000D01*
X322502500Y-171905000D02*
X324962500Y-171905000D01*
X55212500Y-172525000D02*
X52752500Y-172525000D01*
X55212500Y-171055000D02*
X55212500Y-172525000D01*
X52752500Y-171055000D02*
X55212500Y-171055000D01*
X189012500Y-153925000D02*
X186552500Y-153925000D01*
X189012500Y-152455000D02*
X189012500Y-153925000D01*
X186552500Y-152455000D02*
X189012500Y-152455000D01*
X125437500Y-133875000D02*
X122977500Y-133875000D01*
X125437500Y-132405000D02*
X125437500Y-133875000D01*
X122977500Y-132405000D02*
X125437500Y-132405000D01*
X52462500Y-94850000D02*
X50002500Y-94850000D01*
X52462500Y-93380000D02*
X52462500Y-94850000D01*
X50002500Y-93380000D02*
X52462500Y-93380000D01*
X338312500Y-125496359D02*
X338312500Y-125803641D01*
X337552500Y-125496359D02*
X337552500Y-125803641D01*
X242112500Y-133450000D02*
X239652500Y-133450000D01*
X242112500Y-131980000D02*
X242112500Y-133450000D01*
X239652500Y-131980000D02*
X242112500Y-131980000D01*
X257197500Y-114025000D02*
X254737500Y-114025000D01*
X257197500Y-112555000D02*
X257197500Y-114025000D01*
X254737500Y-112555000D02*
X257197500Y-112555000D01*
X295747500Y-113885000D02*
X293287500Y-113885000D01*
X295747500Y-112415000D02*
X295747500Y-113885000D01*
X293287500Y-112415000D02*
X295747500Y-112415000D01*
X218372500Y-114475000D02*
X215912500Y-114475000D01*
X218372500Y-113005000D02*
X218372500Y-114475000D01*
X215912500Y-113005000D02*
X218372500Y-113005000D01*
X261812500Y-133800000D02*
X259352500Y-133800000D01*
X261812500Y-132330000D02*
X261812500Y-133800000D01*
X259352500Y-132330000D02*
X261812500Y-132330000D01*
X246287500Y-172900000D02*
X243827500Y-172900000D01*
X246287500Y-171430000D02*
X246287500Y-172900000D01*
X243827500Y-171430000D02*
X246287500Y-171430000D01*
X169062500Y-153200000D02*
X166602500Y-153200000D01*
X169062500Y-151730000D02*
X169062500Y-153200000D01*
X166602500Y-151730000D02*
X169062500Y-151730000D01*
X208662500Y-94975000D02*
X206202500Y-94975000D01*
X208662500Y-93505000D02*
X208662500Y-94975000D01*
X206202500Y-93505000D02*
X208662500Y-93505000D01*
X237697500Y-114250000D02*
X235237500Y-114250000D01*
X237697500Y-112780000D02*
X237697500Y-114250000D01*
X235237500Y-112780000D02*
X237697500Y-112780000D01*
X339736141Y-129530000D02*
X339428859Y-129530000D01*
X339736141Y-128770000D02*
X339428859Y-128770000D01*
X59737500Y-133750000D02*
X57277500Y-133750000D01*
X59737500Y-132280000D02*
X59737500Y-133750000D01*
X57277500Y-132280000D02*
X59737500Y-132280000D01*
X344137500Y-173250000D02*
X341677500Y-173250000D01*
X344137500Y-171780000D02*
X344137500Y-173250000D01*
X341677500Y-171780000D02*
X344137500Y-171780000D01*
X150412500Y-94850000D02*
X147952500Y-94850000D01*
X150412500Y-93380000D02*
X150412500Y-94850000D01*
X147952500Y-93380000D02*
X150412500Y-93380000D01*
X338697500Y-119710000D02*
X338697500Y-117250000D01*
X340167500Y-119710000D02*
X338697500Y-119710000D01*
X340167500Y-117250000D02*
X340167500Y-119710000D01*
X356720000Y-168003641D02*
X356720000Y-167696359D01*
X357480000Y-168003641D02*
X357480000Y-167696359D01*
X347247500Y-119135000D02*
X347247500Y-116850000D01*
X348717500Y-119135000D02*
X347247500Y-119135000D01*
X348717500Y-116850000D02*
X348717500Y-119135000D01*
X316437500Y-95325000D02*
X313977500Y-95325000D01*
X316437500Y-93855000D02*
X316437500Y-95325000D01*
X313977500Y-93855000D02*
X316437500Y-93855000D01*
X353153859Y-82020000D02*
X353461141Y-82020000D01*
X353153859Y-82780000D02*
X353461141Y-82780000D01*
X120622500Y-114250000D02*
X118162500Y-114250000D01*
X120622500Y-112780000D02*
X120622500Y-114250000D01*
X118162500Y-112780000D02*
X120622500Y-112780000D01*
X359105000Y-131396359D02*
X359105000Y-131703641D01*
X358345000Y-131396359D02*
X358345000Y-131703641D01*
X287187500Y-94675000D02*
X284727500Y-94675000D01*
X287187500Y-93205000D02*
X287187500Y-94675000D01*
X284727500Y-93205000D02*
X287187500Y-93205000D01*
X315587500Y-133800000D02*
X313127500Y-133800000D01*
X315587500Y-132330000D02*
X315587500Y-133800000D01*
X313127500Y-132330000D02*
X315587500Y-132330000D01*
X91612500Y-94725000D02*
X89152500Y-94725000D01*
X91612500Y-93255000D02*
X91612500Y-94725000D01*
X89152500Y-93255000D02*
X91612500Y-93255000D01*
X358804664Y-123540000D02*
X359020336Y-123540000D01*
X358804664Y-124260000D02*
X359020336Y-124260000D01*
X227937500Y-153450000D02*
X225477500Y-153450000D01*
X227937500Y-151980000D02*
X227937500Y-153450000D01*
X225477500Y-151980000D02*
X227937500Y-151980000D01*
X228237500Y-94550000D02*
X225777500Y-94550000D01*
X228237500Y-93080000D02*
X228237500Y-94550000D01*
X225777500Y-93080000D02*
X228237500Y-93080000D01*
X248037500Y-94675000D02*
X245577500Y-94675000D01*
X248037500Y-93205000D02*
X248037500Y-94675000D01*
X245577500Y-93205000D02*
X248037500Y-93205000D01*
X149487500Y-152950000D02*
X147027500Y-152950000D01*
X149487500Y-151480000D02*
X149487500Y-152950000D01*
X147027500Y-151480000D02*
X149487500Y-151480000D01*
X267387500Y-94425000D02*
X264927500Y-94425000D01*
X267387500Y-92955000D02*
X267387500Y-94425000D01*
X264927500Y-92955000D02*
X267387500Y-92955000D01*
X345822500Y-120007836D02*
X345822500Y-119792164D01*
X346542500Y-120007836D02*
X346542500Y-119792164D01*
X354886141Y-118530000D02*
X354578859Y-118530000D01*
X354886141Y-117770000D02*
X354578859Y-117770000D01*
X359667500Y-127138748D02*
X359667500Y-127661252D01*
X358197500Y-127138748D02*
X358197500Y-127661252D01*
X331452500Y-114460000D02*
X335452500Y-114460000D01*
X336442500Y-114750000D02*
X336442500Y-120050000D01*
X330422500Y-114750000D02*
X336442500Y-114750000D01*
X331022500Y-115330000D02*
X331022500Y-116930000D01*
X330422500Y-115330000D02*
X331022500Y-115330000D01*
X336442500Y-116130000D02*
X335442500Y-116130000D01*
X335442500Y-116130000D02*
X334912500Y-116380000D01*
X335442500Y-116130000D02*
X335442500Y-118670000D01*
X336442500Y-116380000D02*
X335442500Y-116380000D01*
X334912500Y-116380000D02*
X334912500Y-118420000D01*
X331022500Y-116930000D02*
X330422500Y-116930000D01*
X331022500Y-117870000D02*
X331022500Y-119470000D01*
X330422500Y-117870000D02*
X331022500Y-117870000D01*
X336442500Y-118420000D02*
X335442500Y-118420000D01*
X334912500Y-118420000D02*
X335442500Y-118670000D01*
X335442500Y-118670000D02*
X336442500Y-118670000D01*
X331022500Y-119470000D02*
X330422500Y-119470000D01*
X336442500Y-120050000D02*
X330422500Y-120050000D01*
X330422500Y-120050000D02*
X330422500Y-114750000D01*
D11*
X358472618Y-177557419D02*
X359044046Y-177557419D01*
X358758332Y-177557419D02*
X358758332Y-176557419D01*
X358758332Y-176557419D02*
X358853570Y-176700276D01*
X358853570Y-176700276D02*
X358948808Y-176795514D01*
X358948808Y-176795514D02*
X359044046Y-176843133D01*
X357520237Y-177557419D02*
X358091665Y-177557419D01*
X357805951Y-177557419D02*
X357805951Y-176557419D01*
X357805951Y-176557419D02*
X357901189Y-176700276D01*
X357901189Y-176700276D02*
X357996427Y-176795514D01*
X357996427Y-176795514D02*
X358091665Y-176843133D01*
X357091665Y-177462180D02*
X357044046Y-177509800D01*
X357044046Y-177509800D02*
X357091665Y-177557419D01*
X357091665Y-177557419D02*
X357139284Y-177509800D01*
X357139284Y-177509800D02*
X357091665Y-177462180D01*
X357091665Y-177462180D02*
X357091665Y-177557419D01*
X356663094Y-176652657D02*
X356615475Y-176605038D01*
X356615475Y-176605038D02*
X356520237Y-176557419D01*
X356520237Y-176557419D02*
X356282142Y-176557419D01*
X356282142Y-176557419D02*
X356186904Y-176605038D01*
X356186904Y-176605038D02*
X356139285Y-176652657D01*
X356139285Y-176652657D02*
X356091666Y-176747895D01*
X356091666Y-176747895D02*
X356091666Y-176843133D01*
X356091666Y-176843133D02*
X356139285Y-176985990D01*
X356139285Y-176985990D02*
X356710713Y-177557419D01*
X356710713Y-177557419D02*
X356091666Y-177557419D01*
X355472618Y-176557419D02*
X355377380Y-176557419D01*
X355377380Y-176557419D02*
X355282142Y-176605038D01*
X355282142Y-176605038D02*
X355234523Y-176652657D01*
X355234523Y-176652657D02*
X355186904Y-176747895D01*
X355186904Y-176747895D02*
X355139285Y-176938371D01*
X355139285Y-176938371D02*
X355139285Y-177176466D01*
X355139285Y-177176466D02*
X355186904Y-177366942D01*
X355186904Y-177366942D02*
X355234523Y-177462180D01*
X355234523Y-177462180D02*
X355282142Y-177509800D01*
X355282142Y-177509800D02*
X355377380Y-177557419D01*
X355377380Y-177557419D02*
X355472618Y-177557419D01*
X355472618Y-177557419D02*
X355567856Y-177509800D01*
X355567856Y-177509800D02*
X355615475Y-177462180D01*
X355615475Y-177462180D02*
X355663094Y-177366942D01*
X355663094Y-177366942D02*
X355710713Y-177176466D01*
X355710713Y-177176466D02*
X355710713Y-176938371D01*
X355710713Y-176938371D02*
X355663094Y-176747895D01*
X355663094Y-176747895D02*
X355615475Y-176652657D01*
X355615475Y-176652657D02*
X355567856Y-176605038D01*
X355567856Y-176605038D02*
X355472618Y-176557419D01*
X354520237Y-176557419D02*
X354424999Y-176557419D01*
X354424999Y-176557419D02*
X354329761Y-176605038D01*
X354329761Y-176605038D02*
X354282142Y-176652657D01*
X354282142Y-176652657D02*
X354234523Y-176747895D01*
X354234523Y-176747895D02*
X354186904Y-176938371D01*
X354186904Y-176938371D02*
X354186904Y-177176466D01*
X354186904Y-177176466D02*
X354234523Y-177366942D01*
X354234523Y-177366942D02*
X354282142Y-177462180D01*
X354282142Y-177462180D02*
X354329761Y-177509800D01*
X354329761Y-177509800D02*
X354424999Y-177557419D01*
X354424999Y-177557419D02*
X354520237Y-177557419D01*
X354520237Y-177557419D02*
X354615475Y-177509800D01*
X354615475Y-177509800D02*
X354663094Y-177462180D01*
X354663094Y-177462180D02*
X354710713Y-177366942D01*
X354710713Y-177366942D02*
X354758332Y-177176466D01*
X354758332Y-177176466D02*
X354758332Y-176938371D01*
X354758332Y-176938371D02*
X354710713Y-176747895D01*
X354710713Y-176747895D02*
X354663094Y-176652657D01*
X354663094Y-176652657D02*
X354615475Y-176605038D01*
X354615475Y-176605038D02*
X354520237Y-176557419D01*
X353567856Y-176557419D02*
X353472618Y-176557419D01*
X353472618Y-176557419D02*
X353377380Y-176605038D01*
X353377380Y-176605038D02*
X353329761Y-176652657D01*
X353329761Y-176652657D02*
X353282142Y-176747895D01*
X353282142Y-176747895D02*
X353234523Y-176938371D01*
X353234523Y-176938371D02*
X353234523Y-177176466D01*
X353234523Y-177176466D02*
X353282142Y-177366942D01*
X353282142Y-177366942D02*
X353329761Y-177462180D01*
X353329761Y-177462180D02*
X353377380Y-177509800D01*
X353377380Y-177509800D02*
X353472618Y-177557419D01*
X353472618Y-177557419D02*
X353567856Y-177557419D01*
X353567856Y-177557419D02*
X353663094Y-177509800D01*
X353663094Y-177509800D02*
X353710713Y-177462180D01*
X353710713Y-177462180D02*
X353758332Y-177366942D01*
X353758332Y-177366942D02*
X353805951Y-177176466D01*
X353805951Y-177176466D02*
X353805951Y-176938371D01*
X353805951Y-176938371D02*
X353758332Y-176747895D01*
X353758332Y-176747895D02*
X353710713Y-176652657D01*
X353710713Y-176652657D02*
X353663094Y-176605038D01*
X353663094Y-176605038D02*
X353567856Y-176557419D01*
X352044046Y-177557419D02*
X352044046Y-176890752D01*
X352044046Y-176985990D02*
X351996427Y-176938371D01*
X351996427Y-176938371D02*
X351901189Y-176890752D01*
X351901189Y-176890752D02*
X351758332Y-176890752D01*
X351758332Y-176890752D02*
X351663094Y-176938371D01*
X351663094Y-176938371D02*
X351615475Y-177033609D01*
X351615475Y-177033609D02*
X351615475Y-177557419D01*
X351615475Y-177033609D02*
X351567856Y-176938371D01*
X351567856Y-176938371D02*
X351472618Y-176890752D01*
X351472618Y-176890752D02*
X351329761Y-176890752D01*
X351329761Y-176890752D02*
X351234522Y-176938371D01*
X351234522Y-176938371D02*
X351186903Y-177033609D01*
X351186903Y-177033609D02*
X351186903Y-177557419D01*
X350710713Y-177557419D02*
X350710713Y-176890752D01*
X350710713Y-176985990D02*
X350663094Y-176938371D01*
X350663094Y-176938371D02*
X350567856Y-176890752D01*
X350567856Y-176890752D02*
X350424999Y-176890752D01*
X350424999Y-176890752D02*
X350329761Y-176938371D01*
X350329761Y-176938371D02*
X350282142Y-177033609D01*
X350282142Y-177033609D02*
X350282142Y-177557419D01*
X350282142Y-177033609D02*
X350234523Y-176938371D01*
X350234523Y-176938371D02*
X350139285Y-176890752D01*
X350139285Y-176890752D02*
X349996428Y-176890752D01*
X349996428Y-176890752D02*
X349901189Y-176938371D01*
X349901189Y-176938371D02*
X349853570Y-177033609D01*
X349853570Y-177033609D02*
X349853570Y-177557419D01*
X348825000Y-178000000D02*
X348825000Y-178786420D01*
X360025000Y-178000000D02*
X360025000Y-178786420D01*
X348825000Y-178200000D02*
X360025000Y-178200000D01*
X348825000Y-178200000D02*
X360025000Y-178200000D01*
X348825000Y-178200000D02*
X349951504Y-177613579D01*
X348825000Y-178200000D02*
X349951504Y-178786421D01*
X360025000Y-178200000D02*
X358898496Y-178786421D01*
X360025000Y-178200000D02*
X358898496Y-177613579D01*
X346082419Y-169359524D02*
X346082419Y-169978571D01*
X346082419Y-169978571D02*
X346463371Y-169645238D01*
X346463371Y-169645238D02*
X346463371Y-169788095D01*
X346463371Y-169788095D02*
X346510990Y-169883333D01*
X346510990Y-169883333D02*
X346558609Y-169930952D01*
X346558609Y-169930952D02*
X346653847Y-169978571D01*
X346653847Y-169978571D02*
X346891942Y-169978571D01*
X346891942Y-169978571D02*
X346987180Y-169930952D01*
X346987180Y-169930952D02*
X347034800Y-169883333D01*
X347034800Y-169883333D02*
X347082419Y-169788095D01*
X347082419Y-169788095D02*
X347082419Y-169502381D01*
X347082419Y-169502381D02*
X347034800Y-169407143D01*
X347034800Y-169407143D02*
X346987180Y-169359524D01*
X346987180Y-170407143D02*
X347034800Y-170454762D01*
X347034800Y-170454762D02*
X347082419Y-170407143D01*
X347082419Y-170407143D02*
X347034800Y-170359524D01*
X347034800Y-170359524D02*
X346987180Y-170407143D01*
X346987180Y-170407143D02*
X347082419Y-170407143D01*
X347082419Y-171407142D02*
X347082419Y-170835714D01*
X347082419Y-171121428D02*
X346082419Y-171121428D01*
X346082419Y-171121428D02*
X346225276Y-171026190D01*
X346225276Y-171026190D02*
X346320514Y-170930952D01*
X346320514Y-170930952D02*
X346368133Y-170835714D01*
X346082419Y-172026190D02*
X346082419Y-172121428D01*
X346082419Y-172121428D02*
X346130038Y-172216666D01*
X346130038Y-172216666D02*
X346177657Y-172264285D01*
X346177657Y-172264285D02*
X346272895Y-172311904D01*
X346272895Y-172311904D02*
X346463371Y-172359523D01*
X346463371Y-172359523D02*
X346701466Y-172359523D01*
X346701466Y-172359523D02*
X346891942Y-172311904D01*
X346891942Y-172311904D02*
X346987180Y-172264285D01*
X346987180Y-172264285D02*
X347034800Y-172216666D01*
X347034800Y-172216666D02*
X347082419Y-172121428D01*
X347082419Y-172121428D02*
X347082419Y-172026190D01*
X347082419Y-172026190D02*
X347034800Y-171930952D01*
X347034800Y-171930952D02*
X346987180Y-171883333D01*
X346987180Y-171883333D02*
X346891942Y-171835714D01*
X346891942Y-171835714D02*
X346701466Y-171788095D01*
X346701466Y-171788095D02*
X346463371Y-171788095D01*
X346463371Y-171788095D02*
X346272895Y-171835714D01*
X346272895Y-171835714D02*
X346177657Y-171883333D01*
X346177657Y-171883333D02*
X346130038Y-171930952D01*
X346130038Y-171930952D02*
X346082419Y-172026190D01*
X346082419Y-172978571D02*
X346082419Y-173073809D01*
X346082419Y-173073809D02*
X346130038Y-173169047D01*
X346130038Y-173169047D02*
X346177657Y-173216666D01*
X346177657Y-173216666D02*
X346272895Y-173264285D01*
X346272895Y-173264285D02*
X346463371Y-173311904D01*
X346463371Y-173311904D02*
X346701466Y-173311904D01*
X346701466Y-173311904D02*
X346891942Y-173264285D01*
X346891942Y-173264285D02*
X346987180Y-173216666D01*
X346987180Y-173216666D02*
X347034800Y-173169047D01*
X347034800Y-173169047D02*
X347082419Y-173073809D01*
X347082419Y-173073809D02*
X347082419Y-172978571D01*
X347082419Y-172978571D02*
X347034800Y-172883333D01*
X347034800Y-172883333D02*
X346987180Y-172835714D01*
X346987180Y-172835714D02*
X346891942Y-172788095D01*
X346891942Y-172788095D02*
X346701466Y-172740476D01*
X346701466Y-172740476D02*
X346463371Y-172740476D01*
X346463371Y-172740476D02*
X346272895Y-172788095D01*
X346272895Y-172788095D02*
X346177657Y-172835714D01*
X346177657Y-172835714D02*
X346130038Y-172883333D01*
X346130038Y-172883333D02*
X346082419Y-172978571D01*
X346082419Y-173930952D02*
X346082419Y-174026190D01*
X346082419Y-174026190D02*
X346130038Y-174121428D01*
X346130038Y-174121428D02*
X346177657Y-174169047D01*
X346177657Y-174169047D02*
X346272895Y-174216666D01*
X346272895Y-174216666D02*
X346463371Y-174264285D01*
X346463371Y-174264285D02*
X346701466Y-174264285D01*
X346701466Y-174264285D02*
X346891942Y-174216666D01*
X346891942Y-174216666D02*
X346987180Y-174169047D01*
X346987180Y-174169047D02*
X347034800Y-174121428D01*
X347034800Y-174121428D02*
X347082419Y-174026190D01*
X347082419Y-174026190D02*
X347082419Y-173930952D01*
X347082419Y-173930952D02*
X347034800Y-173835714D01*
X347034800Y-173835714D02*
X346987180Y-173788095D01*
X346987180Y-173788095D02*
X346891942Y-173740476D01*
X346891942Y-173740476D02*
X346701466Y-173692857D01*
X346701466Y-173692857D02*
X346463371Y-173692857D01*
X346463371Y-173692857D02*
X346272895Y-173740476D01*
X346272895Y-173740476D02*
X346177657Y-173788095D01*
X346177657Y-173788095D02*
X346130038Y-173835714D01*
X346130038Y-173835714D02*
X346082419Y-173930952D01*
X347082419Y-175454762D02*
X346415752Y-175454762D01*
X346510990Y-175454762D02*
X346463371Y-175502381D01*
X346463371Y-175502381D02*
X346415752Y-175597619D01*
X346415752Y-175597619D02*
X346415752Y-175740476D01*
X346415752Y-175740476D02*
X346463371Y-175835714D01*
X346463371Y-175835714D02*
X346558609Y-175883333D01*
X346558609Y-175883333D02*
X347082419Y-175883333D01*
X346558609Y-175883333D02*
X346463371Y-175930952D01*
X346463371Y-175930952D02*
X346415752Y-176026190D01*
X346415752Y-176026190D02*
X346415752Y-176169047D01*
X346415752Y-176169047D02*
X346463371Y-176264286D01*
X346463371Y-176264286D02*
X346558609Y-176311905D01*
X346558609Y-176311905D02*
X347082419Y-176311905D01*
X347082419Y-176788095D02*
X346415752Y-176788095D01*
X346510990Y-176788095D02*
X346463371Y-176835714D01*
X346463371Y-176835714D02*
X346415752Y-176930952D01*
X346415752Y-176930952D02*
X346415752Y-177073809D01*
X346415752Y-177073809D02*
X346463371Y-177169047D01*
X346463371Y-177169047D02*
X346558609Y-177216666D01*
X346558609Y-177216666D02*
X347082419Y-177216666D01*
X346558609Y-177216666D02*
X346463371Y-177264285D01*
X346463371Y-177264285D02*
X346415752Y-177359523D01*
X346415752Y-177359523D02*
X346415752Y-177502380D01*
X346415752Y-177502380D02*
X346463371Y-177597619D01*
X346463371Y-177597619D02*
X346558609Y-177645238D01*
X346558609Y-177645238D02*
X347082419Y-177645238D01*
X348025000Y-175100000D02*
X347138580Y-175100000D01*
X348025000Y-172000000D02*
X347138580Y-172000000D01*
X347725000Y-175100000D02*
X347725000Y-172000000D01*
X347725000Y-175100000D02*
X347725000Y-172000000D01*
X347725000Y-175100000D02*
X347138579Y-173973496D01*
X347725000Y-175100000D02*
X348311421Y-173973496D01*
X347725000Y-172000000D02*
X348311421Y-173126504D01*
X347725000Y-172000000D02*
X347138579Y-173126504D01*
D10*
X90712500Y-153075000D02*
X88252500Y-153075000D01*
X90712500Y-151605000D02*
X90712500Y-153075000D01*
X88252500Y-151605000D02*
X90712500Y-151605000D01*
X62392500Y-153905000D02*
X59932500Y-153905000D01*
X62392500Y-152435000D02*
X62392500Y-153905000D01*
X59932500Y-152435000D02*
X62392500Y-152435000D01*
X281487500Y-134050000D02*
X279027500Y-134050000D01*
X281487500Y-132580000D02*
X281487500Y-134050000D01*
X279027500Y-132580000D02*
X281487500Y-132580000D01*
X169987500Y-94600000D02*
X167527500Y-94600000D01*
X169987500Y-93130000D02*
X169987500Y-94600000D01*
X167527500Y-93130000D02*
X169987500Y-93130000D01*
X305512500Y-173125000D02*
X303052500Y-173125000D01*
X305512500Y-171655000D02*
X305512500Y-173125000D01*
X303052500Y-171655000D02*
X305512500Y-171655000D01*
X345062500Y-128496359D02*
X345062500Y-128803641D01*
X344302500Y-128496359D02*
X344302500Y-128803641D01*
X179072500Y-114250000D02*
X176612500Y-114250000D01*
X179072500Y-112780000D02*
X179072500Y-114250000D01*
X176612500Y-112780000D02*
X179072500Y-112780000D01*
X349672500Y-118400000D02*
X349672500Y-119200000D01*
X349672500Y-118400000D02*
X349672500Y-117600000D01*
X352792500Y-118400000D02*
X352792500Y-120200000D01*
X352792500Y-118400000D02*
X352792500Y-117600000D01*
D12*
X354010000Y-85296465D02*
X354010000Y-86003535D01*
X352105000Y-86003535D02*
X352105000Y-85296465D01*
X352634500Y-84319400D02*
G75*
G03*
X352634500Y-84319400I-127000J0D01*
G01*
D10*
X145287500Y-134350000D02*
X142827500Y-134350000D01*
X145287500Y-132880000D02*
X145287500Y-134350000D01*
X142827500Y-132880000D02*
X145287500Y-132880000D01*
X247312500Y-153250000D02*
X244852500Y-153250000D01*
X247312500Y-151780000D02*
X247312500Y-153250000D01*
X244852500Y-151780000D02*
X247312500Y-151780000D01*
D13*
X343282500Y-125850000D02*
X343282500Y-124475000D01*
X343282500Y-125850000D02*
X339882500Y-125850000D01*
X343282500Y-124475000D02*
X339882500Y-124475000D01*
X339882500Y-125850000D02*
X339882500Y-124475000D01*
D10*
X103837500Y-172600000D02*
X101377500Y-172600000D01*
X103837500Y-171130000D02*
X103837500Y-172600000D01*
X101377500Y-171130000D02*
X103837500Y-171130000D01*
D13*
X341732500Y-121500000D02*
X343107500Y-121500000D01*
X341732500Y-121500000D02*
X341732500Y-118100000D01*
X343107500Y-121500000D02*
X343107500Y-118100000D01*
X341732500Y-118100000D02*
X343107500Y-118100000D01*
D10*
X344312500Y-116996359D02*
X344312500Y-117303641D01*
X343552500Y-116996359D02*
X343552500Y-117303641D01*
X222662500Y-133800000D02*
X220202500Y-133800000D01*
X222662500Y-132330000D02*
X222662500Y-133800000D01*
X220202500Y-132330000D02*
X222662500Y-132330000D01*
X130737500Y-94250000D02*
X128277500Y-94250000D01*
X130737500Y-92780000D02*
X130737500Y-94250000D01*
X128277500Y-92780000D02*
X130737500Y-92780000D01*
X337220000Y-87753641D02*
X337220000Y-87446359D01*
X337980000Y-87753641D02*
X337980000Y-87446359D01*
D13*
X337632500Y-131850000D02*
X337632500Y-130475000D01*
X337632500Y-131850000D02*
X334232500Y-131850000D01*
X337632500Y-130475000D02*
X334232500Y-130475000D01*
X334232500Y-131850000D02*
X334232500Y-130475000D01*
D10*
X342778859Y-97020000D02*
X343086141Y-97020000D01*
X342778859Y-97780000D02*
X343086141Y-97780000D01*
X139847500Y-114000000D02*
X137387500Y-114000000D01*
X139847500Y-112530000D02*
X139847500Y-114000000D01*
X137387500Y-112530000D02*
X139847500Y-112530000D01*
X130312500Y-152950000D02*
X127852500Y-152950000D01*
X130312500Y-151480000D02*
X130312500Y-152950000D01*
X127852500Y-151480000D02*
X130312500Y-151480000D01*
X266812500Y-152875000D02*
X264352500Y-152875000D01*
X266812500Y-151405000D02*
X266812500Y-152875000D01*
X264352500Y-151405000D02*
X266812500Y-151405000D01*
X345574664Y-116540000D02*
X345790336Y-116540000D01*
X345574664Y-117260000D02*
X345790336Y-117260000D01*
X203462500Y-133450000D02*
X201002500Y-133450000D01*
X203462500Y-131980000D02*
X203462500Y-133450000D01*
X201002500Y-131980000D02*
X203462500Y-131980000D01*
X86662500Y-133875000D02*
X84202500Y-133875000D01*
X86662500Y-132405000D02*
X86662500Y-133875000D01*
X84202500Y-132405000D02*
X86662500Y-132405000D01*
X354636141Y-117030000D02*
X354328859Y-117030000D01*
X354636141Y-116270000D02*
X354328859Y-116270000D01*
X159522500Y-114350000D02*
X157062500Y-114350000D01*
X159522500Y-112880000D02*
X159522500Y-114350000D01*
X157062500Y-112880000D02*
X159522500Y-112880000D01*
X110837500Y-152950000D02*
X108377500Y-152950000D01*
X110837500Y-151480000D02*
X110837500Y-152950000D01*
X108377500Y-151480000D02*
X110837500Y-151480000D01*
X324962500Y-153250000D02*
X322502500Y-153250000D01*
X324962500Y-151780000D02*
X324962500Y-153250000D01*
X322502500Y-151780000D02*
X324962500Y-151780000D01*
X343086141Y-99030000D02*
X342778859Y-99030000D01*
X343086141Y-98270000D02*
X342778859Y-98270000D01*
X111162500Y-94600000D02*
X108702500Y-94600000D01*
X111162500Y-93130000D02*
X111162500Y-94600000D01*
X108702500Y-93130000D02*
X111162500Y-93130000D01*
X335302500Y-147828641D02*
X335302500Y-147521359D01*
X336062500Y-147828641D02*
X336062500Y-147521359D01*
X175837500Y-172525000D02*
X173377500Y-172525000D01*
X175837500Y-171055000D02*
X175837500Y-172525000D01*
X173377500Y-171055000D02*
X175837500Y-171055000D01*
X208612500Y-153575000D02*
X206152500Y-153575000D01*
X208612500Y-152105000D02*
X208612500Y-153575000D01*
X206152500Y-152105000D02*
X208612500Y-152105000D01*
X336722500Y-147777836D02*
X336722500Y-147562164D01*
X337442500Y-147777836D02*
X337442500Y-147562164D01*
X276672500Y-114050000D02*
X274212500Y-114050000D01*
X276672500Y-112580000D02*
X276672500Y-114050000D01*
X274212500Y-112580000D02*
X276672500Y-112580000D01*
D13*
X353032500Y-90950000D02*
X351102500Y-90950000D01*
X348262500Y-90950000D02*
X346982500Y-90950000D01*
X346982500Y-90950000D02*
X346982500Y-92930000D01*
X346982500Y-101370000D02*
X346982500Y-103350000D01*
X353032500Y-103350000D02*
X353032500Y-90950000D01*
X353032500Y-103350000D02*
X351102500Y-103350000D01*
X346982500Y-103350000D02*
X348262500Y-103350000D01*
X345136500Y-93400000D02*
G75*
G03*
X345136500Y-93400000I-100000J0D01*
G01*
D14*
X339182500Y-131060000D02*
X340427500Y-131060000D01*
X339182500Y-131790000D02*
X339182500Y-131060000D01*
X339182500Y-149840000D02*
X339182500Y-156560000D01*
X339182500Y-156560000D02*
X357182500Y-156560000D01*
X357182500Y-131060000D02*
X355937500Y-131060000D01*
X357182500Y-131790000D02*
X357182500Y-131060000D01*
X357182500Y-156560000D02*
X357182500Y-149840000D01*
D13*
X338082500Y-149070000D02*
G75*
G03*
X338082500Y-149070000I-100000J0D01*
G01*
D10*
X71937500Y-94850000D02*
X69477500Y-94850000D01*
X71937500Y-93380000D02*
X71937500Y-94850000D01*
X69477500Y-93380000D02*
X71937500Y-93380000D01*
X106137500Y-133875000D02*
X103677500Y-133875000D01*
X106137500Y-132405000D02*
X106137500Y-133875000D01*
X103677500Y-132405000D02*
X106137500Y-132405000D01*
X341477500Y-80115000D02*
X341477500Y-81820000D01*
X341477500Y-85750000D02*
X341477500Y-83830000D01*
X350637500Y-80115000D02*
X341477500Y-80115000D01*
X350637500Y-81820000D02*
X350637500Y-80115000D01*
X350637500Y-83830000D02*
X350637500Y-85750000D01*
X343040336Y-92760000D02*
X342824664Y-92760000D01*
X343040336Y-92040000D02*
X342824664Y-92040000D01*
X343040336Y-101510000D02*
X342824664Y-101510000D01*
X343040336Y-100790000D02*
X342824664Y-100790000D01*
X343040336Y-94260000D02*
X342824664Y-94260000D01*
X343040336Y-93540000D02*
X342824664Y-93540000D01*
X81937500Y-114000000D02*
X79477500Y-114000000D01*
X81937500Y-112530000D02*
X81937500Y-114000000D01*
X79477500Y-112530000D02*
X81937500Y-112530000D01*
X79512500Y-172325000D02*
X77052500Y-172325000D01*
X79512500Y-170855000D02*
X79512500Y-172325000D01*
X77052500Y-170855000D02*
X79512500Y-170855000D01*
X265912500Y-172900000D02*
X263452500Y-172900000D01*
X265912500Y-171430000D02*
X265912500Y-172900000D01*
X263452500Y-171430000D02*
X265912500Y-171430000D01*
X320802500Y-114175000D02*
X318342500Y-114175000D01*
X320802500Y-112705000D02*
X320802500Y-114175000D01*
X318342500Y-112705000D02*
X320802500Y-112705000D01*
X189137500Y-95200000D02*
X186677500Y-95200000D01*
X189137500Y-93730000D02*
X189137500Y-95200000D01*
X186677500Y-93730000D02*
X189137500Y-93730000D01*
X333086141Y-134530000D02*
X332778859Y-134530000D01*
X333086141Y-133770000D02*
X332778859Y-133770000D01*
X198647500Y-114475000D02*
X196187500Y-114475000D01*
X198647500Y-113005000D02*
X198647500Y-114475000D01*
X196187500Y-113005000D02*
X198647500Y-113005000D01*
X101527500Y-114475000D02*
X99067500Y-114475000D01*
X101527500Y-113005000D02*
X101527500Y-114475000D01*
X99067500Y-113005000D02*
X101527500Y-113005000D01*
X343040336Y-100260000D02*
X342824664Y-100260000D01*
X343040336Y-99540000D02*
X342824664Y-99540000D01*
X285912500Y-173325000D02*
X283452500Y-173325000D01*
X285912500Y-171855000D02*
X285912500Y-173325000D01*
X283452500Y-171855000D02*
X285912500Y-171855000D01*
X349712500Y-120950000D02*
X349712500Y-121220000D01*
X349712500Y-121220000D02*
X348612500Y-121220000D01*
X349712500Y-127580000D02*
X346882500Y-127580000D01*
X349712500Y-127850000D02*
X349712500Y-127580000D01*
X356132500Y-120950000D02*
X349712500Y-120950000D01*
X356132500Y-127850000D02*
X349712500Y-127850000D01*
X342336141Y-117030000D02*
X342028859Y-117030000D01*
X342336141Y-116270000D02*
X342028859Y-116270000D01*
X295467500Y-153705000D02*
X293007500Y-153705000D01*
X295467500Y-152235000D02*
X295467500Y-153705000D01*
X293007500Y-152235000D02*
X295467500Y-152235000D01*
X184762500Y-134050000D02*
X182302500Y-134050000D01*
X184762500Y-132580000D02*
X184762500Y-134050000D01*
X182302500Y-132580000D02*
X184762500Y-132580000D01*
X354495242Y-119127500D02*
X354969758Y-119127500D01*
X354495242Y-120172500D02*
X354969758Y-120172500D01*
X344790336Y-124010000D02*
X344574664Y-124010000D01*
X344790336Y-123290000D02*
X344574664Y-123290000D01*
X164437500Y-133800000D02*
X161977500Y-133800000D01*
X164437500Y-132330000D02*
X164437500Y-133800000D01*
X161977500Y-132330000D02*
X164437500Y-132330000D01*
X335197500Y-128635000D02*
X335197500Y-126350000D01*
X336667500Y-128635000D02*
X335197500Y-128635000D01*
X336667500Y-126350000D02*
X336667500Y-128635000D01*
M02*
